SplineFontDB: 3.2
FontName: DIN1451Mittelschrift
FullName: DIN 1451 Mittelschrift
FamilyName: DIN 1451 Mittelschrift
Weight: Book
Version: 1.0
ItalicAngle: 0
UnderlinePosition: 0
UnderlineWidth: 0
Ascent: 1638
Descent: 410
InvalidEm: 0
sfntRevision: 0x00000000
LayerCount: 2
Layer: 0 1 "Back" 1
Layer: 1 1 "Fore" 0
XUID: [1021 848 -194192766 4798696]
StyleMap: 0x0040
FSType: 0
OS2Version: 0
OS2_WeightWidthSlopeOnly: 0
OS2_UseTypoMetrics: 0
CreationTime: -2082844800
ModificationTime: 1694258033
PfmFamily: 17
TTFWeight: 400
TTFWidth: 5
LineGap: 0
VLineGap: 0
Panose: 2 11 6 3 5 3 2 2 2 4
OS2TypoAscent: 1919
OS2TypoAOffset: 0
OS2TypoDescent: -468
OS2TypoDOffset: 0
OS2TypoLinegap: 0
OS2WinAscent: 1919
OS2WinAOffset: 0
OS2WinDescent: 468
OS2WinDOffset: 0
HheadAscent: 1919
HheadAOffset: 0
HheadDescent: -468
HheadDOffset: 0
OS2SubXSize: 0
OS2SubYSize: 0
OS2SubXOff: 0
OS2SubYOff: 0
OS2SupXSize: 0
OS2SupYSize: 0
OS2SupXOff: 0
OS2SupYOff: 0
OS2StrikeYSize: 0
OS2StrikeYPos: 0
OS2UnicodeRanges: 00000000.00000000.00000000.00000000
Lookup: 258 0 0 "'kern' Horizontal Kerning lookup 0" { "'kern' Horizontal Kerning lookup 0 subtable"  } ['kern' () ]
DEI: 91125
ShortTable: maxp 16
  1
  0
  162
  89
  7
  0
  0
  1
  0
  16
  0
  0
  0
  0
  0
  0
EndShort
LangName: 1033 "" "" "Regular" "DIN 1451 Mittelschrift"
Encoding: UnicodeBmp
UnicodeInterp: none
NameList: AGL For New Fonts
DisplaySize: -48
AntiAlias: 1
FitToEm: 0
WinInfo: 0 38 14
BeginChars: 65539 166

StartChar: .notdef
Encoding: 65536 -1 0
Width: 2048
GlyphClass: 1
Flags: W
LayerCount: 2
Fore
SplineSet
413 521 m 1,0,-1
 624 1158 l 1,1,-1
 628 1158 l 1,2,-1
 839 521 l 1,3,-1
 413 521 l 1,0,-1
1015 -1 m 1,4,-1
 903 324 l 1,5,-1
 350 324 l 1,6,-1
 237 -1 l 1,7,-1
 4 -1 l 1,8,-1
 534 1456 l 1,9,-1
 718 1456 l 1,10,-1
 1249 -1 l 1,11,-1
 1015 -1 l 1,4,-1
EndSplineSet
EndChar

StartChar: C
Encoding: 67 67 4
Width: 1138
GlyphClass: 1
Flags: W
LayerCount: 2
Fore
SplineSet
905 406 m 1,0,-1
 1138 406 l 1,1,2
 1095 202 1095 202 954 94.5 c 128,-1,3
 813 -13 813 -13 626 -13 c 0,4,5
 454 -13 454 -13 337.5 69.5 c 128,-1,6
 221 152 221 152 170 248 c 0,7,8
 134 312 134 312 120 388 c 128,-1,9
 106 464 106 464 106 727 c 256,10,11
 106 990 106 990 120 1066 c 128,-1,12
 134 1142 134 1142 170 1206 c 0,13,14
 221 1301 221 1301 337.5 1385 c 128,-1,15
 454 1469 454 1469 626 1469 c 0,16,17
 833 1469 833 1469 968.5 1341.5 c 128,-1,18
 1104 1214 1104 1214 1138 1037 c 1,19,-1
 905 1037 l 1,20,21
 878 1121 878 1121 804.5 1184 c 128,-1,22
 731 1247 731 1247 626 1247 c 0,23,24
 548 1247 548 1247 491 1215 c 128,-1,25
 434 1183 434 1183 401 1141 c 0,26,27
 358 1085 358 1085 342.5 1018 c 128,-1,28
 327 951 327 951 327 727 c 0,29,30
 327 502 327 502 342.5 435 c 128,-1,31
 358 368 358 368 401 314 c 0,32,33
 434 270 434 270 491 238.5 c 128,-1,34
 548 207 548 207 626 207 c 0,35,36
 810 207 810 207 905 406 c 1,0,-1
EndSplineSet
EndChar

StartChar: D
Encoding: 68 68 5
Width: 1290
GlyphClass: 1
Flags: W
LayerCount: 2
Fore
SplineSet
155 -1 m 1,0,-1
 155 1456 l 1,1,-1
 665 1456 l 2,2,3
 964 1456 964 1456 1109 1211 c 0,4,5
 1163 1118 1163 1118 1175 1037 c 128,-1,6
 1187 956 1187 956 1187 727 c 0,7,8
 1187 481 1187 481 1170.5 398.5 c 128,-1,9
 1154 316 1154 316 1105 240 c 0,10,11
 1040 138 1040 138 926.5 68.5 c 128,-1,12
 813 -1 813 -1 651 -1 c 2,13,-1
 155 -1 l 1,0,-1
376 1247 m 1,14,-1
 376 207 l 1,15,-1
 641 207 l 2,16,17
 823 207 823 207 911 334 c 0,18,19
 947 389 947 389 956.5 452.5 c 128,-1,20
 966 516 966 516 966 719 c 0,21,22
 966 915 966 915 955.5 990 c 128,-1,23
 945 1065 945 1065 901 1125 c 0,24,25
 810 1247 810 1247 641 1247 c 2,26,-1
 376 1247 l 1,14,-1
EndSplineSet
EndChar

StartChar: E
Encoding: 69 69 6
Width: 1138
GlyphClass: 1
Flags: W
LayerCount: 2
Fore
SplineSet
155 -1 m 1,0,-1
 155 1456 l 1,1,-1
 1087 1456 l 1,2,-1
 1087 1247 l 1,3,-1
 376 1247 l 1,4,-1
 376 832 l 1,5,-1
 982 832 l 1,6,-1
 982 635 l 1,7,-1
 376 635 l 1,8,-1
 376 207 l 1,9,-1
 1087 207 l 1,10,-1
 1087 -1 l 1,11,-1
 155 -1 l 1,0,-1
EndSplineSet
EndChar

StartChar: F
Encoding: 70 70 7
Width: 1099
GlyphClass: 1
Flags: W
LayerCount: 2
Fore
SplineSet
155 -1 m 1,0,-1
 155 1456 l 1,1,-1
 1087 1456 l 1,2,-1
 1087 1247 l 1,3,-1
 376 1247 l 1,4,-1
 376 818 l 1,5,-1
 982 818 l 1,6,-1
 982 621 l 1,7,-1
 376 621 l 1,8,-1
 376 -1 l 1,9,-1
 155 -1 l 1,0,-1
EndSplineSet
EndChar

StartChar: G
Encoding: 71 71 8
Width: 1249
GlyphClass: 1
Flags: W
LayerCount: 2
Fore
SplineSet
628 592 m 1,0,-1
 628 801 l 1,1,-1
 1146 801 l 1,2,-1
 1146 504 l 2,3,4
 1146 287 1146 287 995 137 c 128,-1,5
 844 -13 844 -13 626 -13 c 0,6,7
 454 -13 454 -13 337.5 69.5 c 128,-1,8
 221 152 221 152 170 248 c 0,9,10
 134 312 134 312 120 388 c 128,-1,11
 106 464 106 464 106 727 c 256,12,13
 106 990 106 990 120 1066 c 128,-1,14
 134 1142 134 1142 170 1206 c 0,15,16
 221 1301 221 1301 337.5 1385 c 128,-1,17
 454 1469 454 1469 626 1469 c 0,18,19
 833 1469 833 1469 968.5 1341.5 c 128,-1,20
 1104 1214 1104 1214 1138 1037 c 1,21,-1
 905 1037 l 1,22,23
 878 1121 878 1121 804.5 1184 c 128,-1,24
 731 1247 731 1247 626 1247 c 0,25,26
 548 1247 548 1247 491 1215 c 128,-1,27
 434 1183 434 1183 401 1141 c 0,28,29
 358 1085 358 1085 342.5 1018 c 128,-1,30
 327 951 327 951 327 727 c 0,31,32
 327 502 327 502 342.5 435 c 128,-1,33
 358 368 358 368 401 314 c 0,34,35
 434 270 434 270 491 238.5 c 128,-1,36
 548 207 548 207 626 207 c 0,37,38
 752 207 752 207 838.5 293 c 128,-1,39
 925 379 925 379 925 517 c 2,40,-1
 925 592 l 1,41,-1
 628 592 l 1,0,-1
EndSplineSet
EndChar

StartChar: H
Encoding: 72 72 9
Width: 1327
GlyphClass: 1
Flags: W
LayerCount: 2
Fore
SplineSet
954 -1 m 1,0,-1
 954 635 l 1,1,-1
 376 635 l 1,2,-1
 376 -1 l 1,3,-1
 155 -1 l 1,4,-1
 155 1456 l 1,5,-1
 376 1456 l 1,6,-1
 376 832 l 1,7,-1
 954 832 l 1,8,-1
 954 1456 l 1,9,-1
 1175 1456 l 1,10,-1
 1175 -1 l 1,11,-1
 954 -1 l 1,0,-1
EndSplineSet
EndChar

StartChar: I
Encoding: 73 73 10
Width: 528
GlyphClass: 1
Flags: W
LayerCount: 2
Fore
SplineSet
155 -1 m 1,0,-1
 155 1456 l 1,1,-1
 376 1456 l 1,2,-1
 376 -1 l 1,3,-1
 155 -1 l 1,0,-1
EndSplineSet
EndChar

StartChar: J
Encoding: 74 74 11
Width: 985
GlyphClass: 1
Flags: W
LayerCount: 2
Fore
SplineSet
4 177 m 1,0,-1
 182 306 l 1,1,2
 250 207 250 207 376 207 c 0,3,4
 459 207 459 207 543.5 265.5 c 128,-1,5
 628 324 628 324 628 473 c 2,6,-1
 628 1456 l 1,7,-1
 849 1456 l 1,8,-1
 849 451 l 2,9,10
 849 232 849 232 704 109.5 c 128,-1,11
 559 -13 559 -13 383 -13 c 0,12,13
 257 -13 257 -13 161 39.5 c 128,-1,14
 65 92 65 92 4 177 c 1,0,-1
EndSplineSet
EndChar

StartChar: K
Encoding: 75 75 12
Width: 1290
GlyphClass: 1
Flags: W
LayerCount: 2
Fore
SplineSet
155 -1 m 1,0,-1
 155 1456 l 1,1,-1
 376 1456 l 1,2,-1
 376 705 l 1,3,-1
 381 705 l 1,4,-1
 980 1456 l 1,5,-1
 1243 1456 l 1,6,-1
 776 881 l 1,7,-1
 1292 -1 l 1,8,-1
 1030 -1 l 1,9,-1
 632 711 l 1,10,-1
 376 443 l 1,11,-1
 376 -1 l 1,12,-1
 155 -1 l 1,0,-1
EndSplineSet
EndChar

StartChar: M
Encoding: 77 77 13
Width: 1552
GlyphClass: 1
Flags: W
LayerCount: 2
Fore
SplineSet
155 -1 m 1,0,-1
 155 1456 l 1,1,-1
 364 1456 l 1,2,-1
 782 506 l 1,3,-1
 1191 1456 l 1,4,-1
 1400 1456 l 1,5,-1
 1400 -1 l 1,6,-1
 1179 -1 l 1,7,-1
 1179 908 l 1,8,-1
 1175 908 l 1,9,-1
 870 207 l 1,10,-1
 686 207 l 1,11,-1
 381 908 l 1,12,-1
 376 908 l 1,13,-1
 376 -1 l 1,14,-1
 155 -1 l 1,0,-1
EndSplineSet
EndChar

StartChar: N
Encoding: 78 78 14
Width: 1400
GlyphClass: 1
Flags: W
LayerCount: 2
Fore
SplineSet
155 -1 m 1,0,-1
 155 1456 l 1,1,-1
 364 1456 l 1,2,-1
 1023 420 l 1,3,-1
 1027 420 l 1,4,-1
 1027 1456 l 1,5,-1
 1249 1456 l 1,6,-1
 1249 -1 l 1,7,-1
 1040 -1 l 1,8,-1
 381 1035 l 1,9,-1
 376 1035 l 1,10,-1
 376 -1 l 1,11,-1
 155 -1 l 1,0,-1
EndSplineSet
EndChar

StartChar: O
Encoding: 79 79 15
Width: 1249
GlyphClass: 1
Flags: W
LayerCount: 2
Fore
SplineSet
106 727 m 256,0,1
 106 990 106 990 120 1066 c 128,-1,2
 134 1142 134 1142 170 1206 c 0,3,4
 221 1301 221 1301 337.5 1385 c 128,-1,5
 454 1469 454 1469 626 1469 c 0,6,7
 797 1469 797 1469 913.5 1385 c 128,-1,8
 1030 1301 1030 1301 1083 1206 c 0,9,10
 1118 1142 1118 1142 1132 1066 c 128,-1,11
 1146 990 1146 990 1146 727 c 256,12,13
 1146 464 1146 464 1132 388 c 128,-1,14
 1118 312 1118 312 1083 248 c 0,15,16
 1030 152 1030 152 913.5 69.5 c 128,-1,17
 797 -13 797 -13 626 -13 c 0,18,19
 454 -13 454 -13 337.5 69.5 c 128,-1,20
 221 152 221 152 170 248 c 0,21,22
 134 312 134 312 120 388 c 128,-1,23
 106 464 106 464 106 727 c 256,0,1
327 727 m 0,24,25
 327 502 327 502 342.5 435 c 128,-1,26
 358 368 358 368 401 314 c 0,27,28
 434 270 434 270 491 238.5 c 128,-1,29
 548 207 548 207 626 207 c 256,30,31
 704 207 704 207 761 238.5 c 128,-1,32
 818 270 818 270 851 314 c 0,33,34
 894 368 894 368 909.5 435 c 128,-1,35
 925 502 925 502 925 727 c 0,36,37
 925 951 925 951 909.5 1018 c 128,-1,38
 894 1085 894 1085 851 1141 c 0,39,40
 818 1183 818 1183 761 1215 c 128,-1,41
 704 1247 704 1247 626 1247 c 256,42,43
 548 1247 548 1247 491 1215 c 128,-1,44
 434 1183 434 1183 401 1141 c 0,45,46
 358 1085 358 1085 342.5 1018 c 128,-1,47
 327 951 327 951 327 727 c 0,24,25
EndSplineSet
EndChar

StartChar: P
Encoding: 80 80 16
Width: 1214
GlyphClass: 1
Flags: W
LayerCount: 2
Fore
SplineSet
376 1247 m 1,0,-1
 376 777 l 1,1,-1
 704 777 l 2,2,3
 827 777 827 777 887.5 851 c 128,-1,4
 948 925 948 925 948 1012 c 0,5,6
 948 1144 948 1144 853 1206 c 0,7,8
 792 1247 792 1247 696 1247 c 2,9,-1
 376 1247 l 1,0,-1
155 -1 m 1,10,-1
 155 1456 l 1,11,-1
 684 1456 l 2,12,13
 769 1456 769 1456 847.5 1438 c 128,-1,14
 926 1420 926 1420 1011 1354 c 0,15,16
 1077 1303 1077 1303 1123 1213.5 c 128,-1,17
 1169 1124 1169 1124 1169 1006 c 0,18,19
 1169 850 1169 850 1052.5 709 c 128,-1,20
 936 568 936 568 712 568 c 2,21,-1
 376 568 l 1,22,-1
 376 -1 l 1,23,-1
 155 -1 l 1,10,-1
EndSplineSet
EndChar

StartChar: Q
Encoding: 81 81 17
Width: 1249
GlyphClass: 1
Flags: W
LayerCount: 2
Fore
SplineSet
790 258 m 1,0,-1
 604 406 l 1,1,-1
 735 557 l 1,2,-1
 905 422 l 1,3,4
 925 492 925 492 925 727 c 0,5,6
 925 951 925 951 909.5 1018 c 128,-1,7
 894 1085 894 1085 851 1141 c 0,8,9
 818 1183 818 1183 761 1215 c 128,-1,10
 704 1247 704 1247 626 1247 c 256,11,12
 548 1247 548 1247 491 1215 c 128,-1,13
 434 1183 434 1183 401 1141 c 0,14,15
 358 1085 358 1085 342.5 1018 c 128,-1,16
 327 951 327 951 327 727 c 0,17,18
 327 502 327 502 342.5 435 c 128,-1,19
 358 368 358 368 401 314 c 0,20,21
 434 270 434 270 491 238.5 c 128,-1,22
 548 207 548 207 626 207 c 0,23,24
 720 207 720 207 790 258 c 1,0,-1
1154 -34 m 1,25,-1
 970 113 l 1,26,27
 905 57 905 57 819.5 22 c 128,-1,28
 734 -13 734 -13 626 -13 c 0,29,30
 454 -13 454 -13 337.5 69.5 c 128,-1,31
 221 152 221 152 170 248 c 0,32,33
 134 312 134 312 120 388 c 128,-1,34
 106 464 106 464 106 727 c 256,35,36
 106 990 106 990 120 1066 c 128,-1,37
 134 1142 134 1142 170 1206 c 0,38,39
 221 1301 221 1301 337.5 1385 c 128,-1,40
 454 1469 454 1469 626 1469 c 0,41,42
 797 1469 797 1469 913.5 1385 c 128,-1,43
 1030 1301 1030 1301 1083 1206 c 0,44,45
 1118 1142 1118 1142 1132 1066 c 128,-1,46
 1146 990 1146 990 1146 727 c 0,47,48
 1146 490 1146 490 1134.5 409 c 128,-1,49
 1123 328 1123 328 1093 271 c 1,50,-1
 1286 117 l 1,51,-1
 1154 -34 l 1,25,-1
EndSplineSet
EndChar

StartChar: R
Encoding: 82 82 18
Width: 1249
GlyphClass: 1
Flags: W
LayerCount: 2
Fore
SplineSet
376 1260 m 1,0,-1
 376 818 l 1,1,-1
 710 818 l 2,2,3
 834 818 834 818 896 887 c 128,-1,4
 958 956 958 956 958 1049 c 0,5,6
 958 1160 958 1160 884 1215 c 0,7,8
 822 1260 822 1260 723 1260 c 2,9,-1
 376 1260 l 1,0,-1
155 -1 m 1,10,-1
 155 1456 l 1,11,-1
 725 1456 l 2,12,13
 912 1456 912 1456 1021 1360 c 0,14,15
 1082 1307 1082 1307 1124.5 1227 c 128,-1,16
 1167 1147 1167 1147 1167 1049 c 0,17,18
 1167 908 1167 908 1091.5 799.5 c 128,-1,19
 1016 691 1016 691 884 646 c 1,20,-1
 1222 -1 l 1,21,-1
 960 -1 l 1,22,-1
 659 621 l 1,23,-1
 376 621 l 1,24,-1
 376 -1 l 1,25,-1
 155 -1 l 1,10,-1
EndSplineSet
EndChar

StartChar: S
Encoding: 83 83 19
Width: 1175
GlyphClass: 1
Flags: W
LayerCount: 2
Fore
SplineSet
28 187 m 1,0,-1
 174 353 l 1,1,2
 256 287 256 287 363 247 c 128,-1,3
 470 207 470 207 587 207 c 0,4,5
 722 207 722 207 799 263 c 128,-1,6
 876 319 876 319 876 410 c 0,7,8
 876 582 876 582 686 607 c 0,9,10
 636 613 636 613 593 619 c 128,-1,11
 550 625 550 625 493 633 c 0,12,13
 304 659 304 659 205 771.5 c 128,-1,14
 106 884 106 884 106 1043 c 0,15,16
 106 1229 106 1229 230.5 1349 c 128,-1,17
 355 1469 355 1469 581 1469 c 0,18,19
 716 1469 716 1469 835 1426 c 128,-1,20
 954 1383 954 1383 1054 1317 c 1,21,-1
 931 1135 l 1,22,23
 851 1185 851 1185 759 1216 c 128,-1,24
 667 1247 667 1247 571 1247 c 0,25,26
 469 1247 469 1247 398 1195 c 128,-1,27
 327 1143 327 1143 327 1039 c 0,28,29
 327 977 327 977 375 923 c 128,-1,30
 423 869 423 869 534 852 c 0,31,32
 563 847 563 847 604 841.5 c 128,-1,33
 645 836 645 836 698 830 c 0,34,35
 902 805 902 805 999.5 682 c 128,-1,36
 1097 559 1097 559 1097 410 c 0,37,38
 1097 209 1097 209 958 98 c 128,-1,39
 819 -13 819 -13 585 -13 c 0,40,41
 256 -13 256 -13 28 187 c 1,0,-1
EndSplineSet
EndChar

StartChar: T
Encoding: 84 84 20
Width: 1024
GlyphClass: 1
Flags: W
LayerCount: 2
Fore
SplineSet
403 -1 m 1,0,-1
 403 1260 l 1,1,-1
 4 1260 l 1,2,-1
 4 1456 l 1,3,-1
 1023 1456 l 1,4,-1
 1023 1260 l 1,5,-1
 624 1260 l 1,6,-1
 624 -1 l 1,7,-1
 403 -1 l 1,0,-1
EndSplineSet
EndChar

StartChar: U
Encoding: 85 85 21
Width: 1290
GlyphClass: 1
Flags: W
LayerCount: 2
Fore
SplineSet
129 492 m 2,0,-1
 129 1456 l 1,1,-1
 350 1456 l 1,2,-1
 350 517 l 2,3,4
 350 366 350 366 435.5 286.5 c 128,-1,5
 521 207 521 207 647 207 c 256,6,7
 773 207 773 207 858.5 286.5 c 128,-1,8
 944 366 944 366 944 517 c 2,9,-1
 944 1456 l 1,10,-1
 1165 1456 l 1,11,-1
 1165 492 l 2,12,13
 1165 264 1165 264 1014 125.5 c 128,-1,14
 863 -13 863 -13 647 -13 c 0,15,16
 430 -13 430 -13 279.5 125.5 c 128,-1,17
 129 264 129 264 129 492 c 2,0,-1
EndSplineSet
EndChar

StartChar: V
Encoding: 86 86 22
Width: 1138
GlyphClass: 1
Flags: W
LayerCount: 2
Fore
SplineSet
485 -1 m 1,0,-1
 4 1456 l 1,1,-1
 237 1456 l 1,2,-1
 569 347 l 1,3,-1
 573 347 l 1,4,-1
 905 1456 l 1,5,-1
 1138 1456 l 1,6,-1
 657 -1 l 1,7,-1
 485 -1 l 1,0,-1
EndSplineSet
EndChar

StartChar: W
Encoding: 87 87 23
Width: 1703
GlyphClass: 1
Flags: W
LayerCount: 2
Fore
SplineSet
389 -1 m 1,0,-1
 24 1456 l 1,1,-1
 258 1456 l 1,2,-1
 487 420 l 1,3,-1
 491 420 l 1,4,-1
 774 1456 l 1,5,-1
 933 1456 l 1,6,-1
 1216 420 l 1,7,-1
 1220 420 l 1,8,-1
 1449 1456 l 1,9,-1
 1683 1456 l 1,10,-1
 1318 -1 l 1,11,-1
 1134 -1 l 1,12,-1
 855 1049 l 1,13,-1
 851 1049 l 1,14,-1
 573 -1 l 1,15,-1
 389 -1 l 1,0,-1
EndSplineSet
EndChar

StartChar: X
Encoding: 88 88 24
Width: 1097
GlyphClass: 1
Flags: W
LayerCount: 2
Fore
SplineSet
870 -1 m 1,0,-1
 551 541 l 1,1,-1
 231 -1 l 1,2,-1
 -18 -1 l 1,3,-1
 428 746 l 1,4,-1
 10 1456 l 1,5,-1
 260 1456 l 1,6,-1
 551 951 l 1,7,-1
 841 1456 l 1,8,-1
 1091 1456 l 1,9,-1
 673 746 l 1,10,-1
 1120 -1 l 1,11,-1
 870 -1 l 1,0,-1
EndSplineSet
EndChar

StartChar: Y
Encoding: 89 89 25
Width: 1024
GlyphClass: 1
Flags: W
LayerCount: 2
Fore
SplineSet
409 -1 m 1,0,-1
 409 598 l 1,1,-1
 -28 1456 l 1,2,-1
 204 1456 l 1,3,-1
 514 809 l 1,4,-1
 823 1456 l 1,5,-1
 1056 1456 l 1,6,-1
 618 598 l 1,7,-1
 618 -1 l 1,8,-1
 409 -1 l 1,0,-1
EndSplineSet
EndChar

StartChar: Z
Encoding: 90 90 26
Width: 1062
GlyphClass: 1
Flags: W
LayerCount: 2
Fore
SplineSet
67 -1 m 1,0,-1
 67 183 l 1,1,-1
 729 1260 l 1,2,-1
 94 1260 l 1,3,-1
 94 1456 l 1,4,-1
 999 1456 l 1,5,-1
 999 1290 l 1,6,-1
 335 207 l 1,7,-1
 999 207 l 1,8,-1
 999 -1 l 1,9,-1
 67 -1 l 1,0,-1
EndSplineSet
EndChar

StartChar: exclam
Encoding: 33 33 27
Width: 528
GlyphClass: 1
Flags: W
LayerCount: 2
Fore
SplineSet
213 359 m 1,0,-1
 135 1456 l 1,1,-1
 397 1456 l 1,2,-1
 317 359 l 1,3,-1
 213 359 l 1,0,-1
161 -1 m 1,4,-1
 161 207 l 1,5,-1
 370 207 l 1,6,-1
 370 -1 l 1,7,-1
 161 -1 l 1,4,-1
EndSplineSet
EndChar

StartChar: numbersign
Encoding: 35 35 28
Width: 983
GlyphClass: 1
Flags: W
LayerCount: 2
Fore
SplineSet
571 580 m 1,0,-1
 616 875 l 1,1,-1
 415 875 l 1,2,-1
 370 580 l 1,3,-1
 571 580 l 1,0,-1
493 -1 m 1,4,-1
 557 445 l 1,5,-1
 356 445 l 1,6,-1
 292 -1 l 1,7,-1
 133 -1 l 1,8,-1
 196 445 l 1,9,-1
 8 445 l 1,10,-1
 8 580 l 1,11,-1
 211 580 l 1,12,-1
 256 875 l 1,13,-1
 67 875 l 1,14,-1
 67 1010 l 1,15,-1
 270 1010 l 1,16,-1
 333 1456 l 1,17,-1
 493 1456 l 1,18,-1
 430 1010 l 1,19,-1
 630 1010 l 1,20,-1
 694 1456 l 1,21,-1
 853 1456 l 1,22,-1
 790 1010 l 1,23,-1
 978 1010 l 1,24,-1
 978 875 l 1,25,-1
 776 875 l 1,26,-1
 731 580 l 1,27,-1
 919 580 l 1,28,-1
 919 445 l 1,29,-1
 716 445 l 1,30,-1
 653 -1 l 1,31,-1
 493 -1 l 1,4,-1
EndSplineSet
EndChar

StartChar: dollar
Encoding: 36 36 29
Width: 983
GlyphClass: 1
Flags: W
LayerCount: 2
Fore
SplineSet
18 181 m 1,0,-1
 161 332 l 1,1,2
 213 272 213 272 278 232 c 128,-1,3
 343 192 343 192 440 183 c 1,4,-1
 440 639 l 1,5,6
 248 684 248 684 166 788 c 128,-1,7
 84 892 84 892 84 1049 c 0,8,9
 84 1226 84 1226 179.5 1337 c 128,-1,10
 275 1448 275 1448 440 1469 c 1,11,-1
 440 1612 l 1,12,-1
 544 1612 l 1,13,-1
 544 1469 l 1,14,15
 729 1466 729 1466 890 1331 c 1,16,-1
 772 1176 l 1,17,18
 675 1262 675 1262 544 1272 c 1,19,-1
 544 836 l 1,20,21
 741 797 741 797 830 684.5 c 128,-1,22
 919 572 919 572 919 414 c 0,23,24
 919 243 919 243 816 127 c 128,-1,25
 713 11 713 11 544 -13 c 1,26,-1
 544 -234 l 1,27,-1
 440 -234 l 1,28,-1
 440 -13 l 1,29,30
 323 -14 323 -14 211 41.5 c 128,-1,31
 99 97 99 97 18 181 c 1,0,-1
440 861 m 1,32,-1
 440 1272 l 1,33,34
 380 1263 380 1263 336 1210.5 c 128,-1,35
 292 1158 292 1158 292 1053 c 0,36,37
 292 981 292 981 323.5 934.5 c 128,-1,38
 355 888 355 888 440 861 c 1,32,-1
544 615 m 1,39,-1
 544 183 l 1,40,41
 637 205 637 205 673.5 265.5 c 128,-1,42
 710 326 710 326 710 416 c 0,43,44
 710 485 710 485 676 540.5 c 128,-1,45
 642 596 642 596 544 615 c 1,39,-1
EndSplineSet
EndChar

StartChar: percent
Encoding: 37 37 30
Width: 1062
GlyphClass: 1
Flags: W
LayerCount: 2
Fore
SplineSet
692 314 m 2,0,-1
 692 203 l 2,1,2
 692 103 692 103 768 103 c 0,3,4
 843 103 843 103 843 203 c 2,5,-1
 843 314 l 2,6,7
 843 414 843 414 768 414 c 0,8,9
 692 414 692 414 692 314 c 2,0,-1
575 189 m 2,10,-1
 575 328 l 2,11,12
 575 435 575 435 634 483 c 128,-1,13
 693 531 693 531 768 531 c 0,14,15
 841 531 841 531 900.5 483 c 128,-1,16
 960 435 960 435 960 328 c 2,17,-1
 960 189 l 2,18,19
 960 81 960 81 900.5 34 c 128,-1,20
 841 -13 841 -13 768 -13 c 0,21,22
 693 -13 693 -13 634 34 c 128,-1,23
 575 81 575 81 575 189 c 2,10,-1
106 1127 m 2,24,-1
 106 1266 l 2,25,26
 106 1373 106 1373 165 1421 c 128,-1,27
 224 1469 224 1469 299 1469 c 0,28,29
 372 1469 372 1469 431.5 1421 c 128,-1,30
 491 1373 491 1373 491 1266 c 2,31,-1
 491 1127 l 2,32,33
 491 1019 491 1019 431.5 971.5 c 128,-1,34
 372 924 372 924 299 924 c 0,35,36
 224 924 224 924 165 971.5 c 128,-1,37
 106 1019 106 1019 106 1127 c 2,24,-1
223 1252 m 2,38,-1
 223 1141 l 2,39,40
 223 1041 223 1041 299 1041 c 0,41,42
 374 1041 374 1041 374 1141 c 2,43,-1
 374 1252 l 2,44,45
 374 1352 374 1352 299 1352 c 0,46,47
 223 1352 223 1352 223 1252 c 2,38,-1
120 -1 m 1,48,-1
 811 1456 l 1,49,-1
 946 1456 l 1,50,-1
 256 -1 l 1,51,-1
 120 -1 l 1,48,-1
EndSplineSet
EndChar

StartChar: ampersand
Encoding: 38 38 31
Width: 1327
GlyphClass: 1
Flags: W
LayerCount: 2
Fore
SplineSet
424 1145 m 0,0,1
 424 1056 424 1056 532 959 c 1,2,3
 633 997 633 997 671.5 1043.5 c 128,-1,4
 710 1090 710 1090 710 1145 c 0,5,6
 710 1202 710 1202 669 1243 c 128,-1,7
 628 1284 628 1284 567 1284 c 0,8,9
 505 1284 505 1284 464.5 1243 c 128,-1,10
 424 1202 424 1202 424 1145 c 0,0,1
1085 -1 m 1,11,-1
 950 146 l 1,12,13
 859 78 859 78 759 32.5 c 128,-1,14
 659 -13 659 -13 542 -13 c 0,15,16
 336 -13 336 -13 209 121 c 128,-1,17
 82 255 82 255 82 435 c 0,18,19
 82 564 82 564 154 677.5 c 128,-1,20
 226 791 226 791 360 861 c 1,21,22
 307 920 307 920 273 991.5 c 128,-1,23
 239 1063 239 1063 239 1137 c 0,24,25
 239 1269 239 1269 329 1369 c 128,-1,26
 419 1469 419 1469 567 1469 c 0,27,28
 714 1469 714 1469 804 1369 c 128,-1,29
 894 1269 894 1269 894 1137 c 0,30,31
 894 925 894 925 651 811 c 1,32,-1
 962 437 l 1,33,34
 1006 493 1006 493 1035.5 553.5 c 128,-1,35
 1065 614 1065 614 1089 680 c 1,36,-1
 1275 607 l 1,37,38
 1242 526 1242 526 1194 440.5 c 128,-1,39
 1146 355 1146 355 1085 291 c 1,40,-1
 1331 -1 l 1,41,-1
 1085 -1 l 1,11,-1
829 299 m 1,42,-1
 477 721 l 1,43,44
 266 606 266 606 266 437 c 0,45,46
 266 321 266 321 346.5 245.5 c 128,-1,47
 427 170 427 170 536 170 c 0,48,49
 603 170 603 170 680 200 c 128,-1,50
 757 230 757 230 829 299 c 1,42,-1
EndSplineSet
EndChar

StartChar: quotesingle
Encoding: 39 39 32
Width: 491
GlyphClass: 1
Flags: W
LayerCount: 2
Fore
SplineSet
143 1096 m 1,0,-1
 143 1305 l 1,1,-1
 352 1456 l 1,2,-1
 352 1096 l 1,3,-1
 143 1096 l 1,0,-1
EndSplineSet
EndChar

StartChar: parenleft
Encoding: 40 40 33
Width: 569
GlyphClass: 1
Flags: W
LayerCount: 2
Fore
SplineSet
530 -210 m 1,0,-1
 448 -210 l 1,1,2
 286 -30 286 -30 205.5 191 c 128,-1,3
 125 412 125 412 125 623 c 0,4,5
 125 833 125 833 205.5 1054.5 c 128,-1,6
 286 1276 286 1276 448 1456 c 1,7,-1
 530 1456 l 1,8,9
 437 1262 437 1262 385 1053.5 c 128,-1,10
 333 845 333 845 333 623 c 0,11,12
 333 400 333 400 385 192 c 128,-1,13
 437 -16 437 -16 530 -210 c 1,0,-1
EndSplineSet
EndChar

StartChar: parenright
Encoding: 41 41 34
Width: 569
GlyphClass: 1
Flags: W
LayerCount: 2
Fore
SplineSet
43 1456 m 1,0,-1
 125 1456 l 1,1,2
 286 1276 286 1276 367 1054.5 c 128,-1,3
 448 833 448 833 448 623 c 0,4,5
 448 412 448 412 367 191 c 128,-1,6
 286 -30 286 -30 125 -210 c 1,7,-1
 43 -210 l 1,8,9
 134 -16 134 -16 186.5 192 c 128,-1,10
 239 400 239 400 239 623 c 0,11,12
 239 845 239 845 186.5 1053.5 c 128,-1,13
 134 1262 134 1262 43 1456 c 1,0,-1
EndSplineSet
EndChar

StartChar: asterisk
Encoding: 42 42 35
Width: 720
GlyphClass: 1
Flags: W
LayerCount: 2
Fore
SplineSet
301 850 m 1,0,-1
 301 1049 l 1,1,-1
 137 955 l 1,2,-1
 75 1049 l 1,3,-1
 245 1153 l 1,4,-1
 75 1258 l 1,5,-1
 137 1352 l 1,6,-1
 301 1258 l 1,7,-1
 301 1456 l 1,8,-1
 424 1456 l 1,9,-1
 424 1258 l 1,10,-1
 587 1352 l 1,11,-1
 649 1258 l 1,12,-1
 479 1153 l 1,13,-1
 649 1049 l 1,14,-1
 587 955 l 1,15,-1
 424 1049 l 1,16,-1
 424 850 l 1,17,-1
 301 850 l 1,0,-1
EndSplineSet
EndChar

StartChar: plus
Encoding: 43 43 36
Width: 1228
GlyphClass: 1
Flags: W
LayerCount: 2
Fore
SplineSet
536 596 m 1,0,-1
 536 1035 l 1,1,-1
 696 1035 l 1,2,-1
 696 596 l 1,3,-1
 1134 596 l 1,4,-1
 1134 437 l 1,5,-1
 696 437 l 1,6,-1
 696 -1 l 1,7,-1
 536 -1 l 1,8,-1
 536 437 l 1,9,-1
 98 437 l 1,10,-1
 98 596 l 1,11,-1
 536 596 l 1,0,-1
EndSplineSet
EndChar

StartChar: comma
Encoding: 44 44 37
Width: 491
GlyphClass: 1
Flags: W
LayerCount: 2
Fore
SplineSet
143 -152 m 1,0,-1
 143 207 l 1,1,-1
 352 207 l 1,2,-1
 352 -1 l 1,3,-1
 143 -152 l 1,0,-1
EndSplineSet
EndChar

StartChar: period
Encoding: 46 46 38
Width: 491
GlyphClass: 1
Flags: W
LayerCount: 2
Fore
SplineSet
143 -1 m 1,0,-1
 143 207 l 1,1,-1
 352 207 l 1,2,-1
 352 -1 l 1,3,-1
 143 -1 l 1,0,-1
EndSplineSet
EndChar

StartChar: hyphen
Encoding: 45 45 39
Width: 833
GlyphClass: 1
Flags: W
LayerCount: 2
Fore
SplineSet
110 461 m 1,0,-1
 110 670 l 1,1,-1
 727 670 l 1,2,-1
 727 461 l 1,3,-1
 110 461 l 1,0,-1
EndSplineSet
EndChar

StartChar: slash
Encoding: 47 47 40
Width: 681
GlyphClass: 1
Flags: W
LayerCount: 2
Fore
SplineSet
18 -13 m 1,0,-1
 507 1469 l 1,1,-1
 667 1469 l 1,2,-1
 178 -13 l 1,3,-1
 18 -13 l 1,0,-1
EndSplineSet
EndChar

StartChar: zero
Encoding: 48 48 41
Width: 983
GlyphClass: 1
Flags: W
LayerCount: 2
Fore
SplineSet
698 418 m 2,0,-1
 698 1037 l 2,1,2
 698 1142 698 1142 641.5 1201 c 128,-1,3
 585 1260 585 1260 493 1260 c 0,4,5
 400 1260 400 1260 344 1201 c 128,-1,6
 288 1142 288 1142 288 1037 c 2,7,-1
 288 418 l 2,8,9
 288 312 288 312 344 253.5 c 128,-1,10
 400 195 400 195 493 195 c 0,11,12
 585 195 585 195 641.5 253.5 c 128,-1,13
 698 312 698 312 698 418 c 2,0,-1
79 406 m 2,14,-1
 79 1049 l 2,15,16
 79 1250 79 1250 205 1359.5 c 128,-1,17
 331 1469 331 1469 493 1469 c 0,18,19
 654 1469 654 1469 780.5 1359.5 c 128,-1,20
 907 1250 907 1250 907 1049 c 2,21,-1
 907 406 l 2,22,23
 907 205 907 205 780.5 96 c 128,-1,24
 654 -13 654 -13 493 -13 c 0,25,26
 331 -13 331 -13 205 96 c 128,-1,27
 79 205 79 205 79 406 c 2,14,-1
EndSplineSet
EndChar

StartChar: o
Encoding: 111 111 42
Width: 1024
GlyphClass: 1
Flags: W
LayerCount: 2
Fore
SplineSet
86 519 m 0,0,1
 86 686 86 686 112 768 c 128,-1,2
 138 850 138 850 198 916 c 0,3,4
 241 963 241 963 316.5 1006 c 128,-1,5
 392 1049 392 1049 514 1049 c 0,6,7
 634 1049 634 1049 710 1006 c 128,-1,8
 786 963 786 963 829 916 c 0,9,10
 889 850 889 850 915 768 c 128,-1,11
 941 686 941 686 941 519 c 0,12,13
 941 349 941 349 915 267 c 128,-1,14
 889 185 889 185 829 119 c 0,15,16
 786 71 786 71 710 29 c 128,-1,17
 634 -13 634 -13 514 -13 c 0,18,19
 392 -13 392 -13 316.5 29 c 128,-1,20
 241 71 241 71 198 119 c 0,21,22
 138 185 138 185 112 267 c 128,-1,23
 86 349 86 349 86 519 c 0,0,1
733 517 m 256,24,25
 733 630 733 630 721.5 676 c 128,-1,26
 710 722 710 722 682 764 c 0,27,28
 627 840 627 840 514 840 c 0,29,30
 399 840 399 840 346 764 c 0,31,32
 316 722 316 722 305.5 676 c 128,-1,33
 295 630 295 630 295 519 c 0,34,35
 295 405 295 405 305.5 358.5 c 128,-1,36
 316 312 316 312 346 271 c 0,37,38
 399 195 399 195 514 195 c 0,39,40
 627 195 627 195 682 271 c 0,41,42
 710 312 710 312 721.5 358 c 128,-1,43
 733 404 733 404 733 517 c 256,24,25
EndSplineSet
EndChar

StartChar: l
Encoding: 108 108 43
Width: 528
GlyphClass: 1
Flags: W
LayerCount: 2
Fore
SplineSet
137 250 m 2,0,-1
 137 1456 l 1,1,-1
 346 1456 l 1,2,-1
 346 267 l 2,3,4
 346 195 346 195 424 195 c 2,5,-1
 495 195 l 1,6,-1
 495 -1 l 1,7,-1
 403 -1 l 2,8,9
 289 -1 289 -1 213 54.5 c 128,-1,10
 137 110 137 110 137 250 c 2,0,-1
EndSplineSet
EndChar

StartChar: k
Encoding: 107 107 44
Width: 1062
GlyphClass: 1
Flags: W
LayerCount: 2
Fore
SplineSet
137 -1 m 1,0,-1
 137 1456 l 1,1,-1
 346 1456 l 1,2,-1
 346 549 l 1,3,-1
 350 549 l 1,4,-1
 749 1037 l 1,5,-1
 999 1037 l 1,6,-1
 641 631 l 1,7,-1
 1048 -1 l 1,8,-1
 786 -1 l 1,9,-1
 510 484 l 1,10,-1
 346 297 l 1,11,-1
 346 -1 l 1,12,-1
 137 -1 l 1,0,-1
EndSplineSet
EndChar

StartChar: b
Encoding: 98 98 45
Width: 1062
GlyphClass: 1
Flags: W
LayerCount: 2
Fore
SplineSet
137 -1 m 1,0,-1
 137 1456 l 1,1,-1
 346 1456 l 1,2,-1
 346 926 l 1,3,4
 404 981 404 981 468.5 1015 c 128,-1,5
 533 1049 533 1049 614 1049 c 0,6,7
 709 1049 709 1049 778 1010.5 c 128,-1,8
 847 972 847 972 892 914 c 0,9,10
 935 858 935 858 950.5 783.5 c 128,-1,11
 966 709 966 709 966 519 c 0,12,13
 966 327 966 327 950.5 251.5 c 128,-1,14
 935 176 935 176 892 121 c 0,15,16
 847 62 847 62 778 24.5 c 128,-1,17
 709 -13 709 -13 614 -13 c 0,18,19
 454 -13 454 -13 346 107 c 1,20,-1
 346 -1 l 1,21,-1
 137 -1 l 1,0,-1
551 840 m 256,22,23
 404 840 404 840 375 735 c 128,-1,24
 346 630 346 630 346 519 c 0,25,26
 346 405 346 405 375 300 c 128,-1,27
 404 195 404 195 551 195 c 256,28,29
 698 195 698 195 727.5 296 c 128,-1,30
 757 397 757 397 757 519 c 0,31,32
 757 638 757 638 727.5 739 c 128,-1,33
 698 840 698 840 551 840 c 256,22,23
EndSplineSet
EndChar

StartChar: c
Encoding: 99 99 46
Width: 909
GlyphClass: 1
Flags: W
LayerCount: 2
Fore
SplineSet
747 304 m 1,0,-1
 901 166 l 1,1,2
 833 88 833 88 739.5 37.5 c 128,-1,3
 646 -13 646 -13 528 -13 c 0,4,5
 348 -13 348 -13 202.5 109.5 c 128,-1,6
 57 232 57 232 57 517 c 256,7,8
 57 802 57 802 202.5 925.5 c 128,-1,9
 348 1049 348 1049 528 1049 c 0,10,11
 646 1049 646 1049 739.5 998 c 128,-1,12
 833 947 833 947 901 869 c 1,13,-1
 747 732 l 1,14,15
 659 840 659 840 536 840 c 0,16,17
 266 840 266 840 266 517 c 0,18,19
 266 195 266 195 536 195 c 0,20,21
 660 195 660 195 747 304 c 1,0,-1
EndSplineSet
EndChar

StartChar: d
Encoding: 100 100 47
Width: 1062
GlyphClass: 1
Flags: W
LayerCount: 2
Fore
SplineSet
757 -1 m 1,0,-1
 757 107 l 1,1,2
 648 -13 648 -13 489 -13 c 0,3,4
 393 -13 393 -13 324 24.5 c 128,-1,5
 255 62 255 62 211 121 c 0,6,7
 167 176 167 176 152 251.5 c 128,-1,8
 137 327 137 327 137 519 c 0,9,10
 137 709 137 709 152 783.5 c 128,-1,11
 167 858 167 858 211 914 c 0,12,13
 255 972 255 972 324 1010.5 c 128,-1,14
 393 1049 393 1049 489 1049 c 0,15,16
 569 1049 569 1049 634 1015 c 128,-1,17
 699 981 699 981 757 926 c 1,18,-1
 757 1456 l 1,19,-1
 966 1456 l 1,20,-1
 966 -1 l 1,21,-1
 757 -1 l 1,0,-1
553 840 m 0,22,23
 405 840 405 840 375.5 739 c 128,-1,24
 346 638 346 638 346 519 c 0,25,26
 346 397 346 397 375.5 296 c 128,-1,27
 405 195 405 195 553 195 c 0,28,29
 698 195 698 195 727.5 300 c 128,-1,30
 757 405 757 405 757 519 c 0,31,32
 757 630 757 630 727.5 735 c 128,-1,33
 698 840 698 840 553 840 c 0,22,23
EndSplineSet
EndChar

StartChar: e
Encoding: 101 101 48
Width: 1024
GlyphClass: 1
Flags: W
LayerCount: 2
Fore
SplineSet
941 439 m 1,0,-1
 295 439 l 1,1,2
 295 311 295 311 364.5 247 c 128,-1,3
 434 183 434 183 542 183 c 0,4,5
 671 183 671 183 770 283 c 1,6,-1
 921 154 l 1,7,8
 844 64 844 64 747.5 25.5 c 128,-1,9
 651 -13 651 -13 546 -13 c 0,10,11
 386 -13 386 -13 236 90.5 c 128,-1,12
 86 194 86 194 86 514 c 0,13,14
 86 817 86 817 224.5 933 c 128,-1,15
 363 1049 363 1049 514 1049 c 0,16,17
 685 1049 685 1049 813 930.5 c 128,-1,18
 941 812 941 812 941 611 c 2,19,-1
 941 439 l 1,0,-1
295 611 m 1,20,-1
 733 611 l 1,21,22
 728 728 728 728 667 790 c 128,-1,23
 606 852 606 852 514 852 c 0,24,25
 421 852 421 852 359.5 790 c 128,-1,26
 298 728 298 728 295 611 c 1,20,-1
EndSplineSet
EndChar

StartChar: f
Encoding: 102 102 49
Width: 569
GlyphClass: 1
Flags: W
LayerCount: 2
Fore
SplineSet
170 -1 m 1,0,-1
 170 877 l 1,1,-1
 65 877 l 1,2,-1
 65 1037 l 1,3,-1
 170 1037 l 1,4,-1
 170 1174 l 2,5,6
 170 1319 170 1319 250 1387.5 c 128,-1,7
 330 1456 330 1456 452 1456 c 2,8,-1
 587 1456 l 1,9,-1
 587 1260 l 1,10,-1
 469 1260 l 2,11,12
 378 1260 378 1260 378 1174 c 2,13,-1
 378 1037 l 1,14,-1
 587 1037 l 1,15,-1
 587 877 l 1,16,-1
 378 877 l 1,17,-1
 378 -1 l 1,18,-1
 170 -1 l 1,0,-1
EndSplineSet
EndChar

StartChar: h
Encoding: 104 104 50
Width: 1099
GlyphClass: 1
Flags: W
LayerCount: 2
Fore
SplineSet
137 -1 m 1,0,-1
 137 1456 l 1,1,-1
 346 1456 l 1,2,-1
 346 926 l 1,3,-1
 350 926 l 1,4,5
 447 1049 447 1049 620 1049 c 0,6,7
 741 1049 741 1049 853.5 957 c 128,-1,8
 966 865 966 865 966 689 c 2,9,-1
 966 -1 l 1,10,-1
 757 -1 l 1,11,-1
 757 617 l 2,12,13
 757 722 757 722 698.5 781 c 128,-1,14
 640 840 640 840 553 840 c 0,15,16
 463 840 463 840 404.5 781 c 128,-1,17
 346 722 346 722 346 617 c 2,18,-1
 346 -1 l 1,19,-1
 137 -1 l 1,0,-1
EndSplineSet
EndChar

StartChar: q
Encoding: 113 113 51
Width: 1062
GlyphClass: 1
Flags: W
LayerCount: 2
Fore
SplineSet
720 -421 m 1,0,-1
 720 109 l 1,1,2
 593 -13 593 -13 452 -13 c 0,3,4
 356 -13 356 -13 287 24.5 c 128,-1,5
 218 62 218 62 174 121 c 0,6,7
 130 176 130 176 115 251 c 128,-1,8
 100 326 100 326 100 517 c 0,9,10
 100 709 100 709 115 783.5 c 128,-1,11
 130 858 130 858 174 914 c 0,12,13
 218 972 218 972 287 1010.5 c 128,-1,14
 356 1049 356 1049 452 1049 c 0,15,16
 610 1049 610 1049 720 928 c 1,17,-1
 720 1037 l 1,18,-1
 929 1037 l 1,19,-1
 929 -421 l 1,20,-1
 720 -421 l 1,0,-1
516 195 m 0,21,22
 661 195 661 195 690.5 299.5 c 128,-1,23
 720 404 720 404 720 517 c 256,24,25
 720 630 720 630 690.5 735 c 128,-1,26
 661 840 661 840 516 840 c 0,27,28
 368 840 368 840 338.5 738.5 c 128,-1,29
 309 637 309 637 309 517 c 256,30,31
 309 397 309 397 338.5 296 c 128,-1,32
 368 195 368 195 516 195 c 0,21,22
EndSplineSet
EndChar

StartChar: s
Encoding: 115 115 52
Width: 983
GlyphClass: 1
Flags: W
LayerCount: 2
Fore
SplineSet
22 172 m 1,0,-1
 168 316 l 1,1,2
 304 183 304 183 495 183 c 0,3,4
 584 183 584 183 642 216.5 c 128,-1,5
 700 250 700 250 700 316 c 0,6,7
 700 407 700 407 573 418 c 2,8,-1
 389 435 l 2,9,10
 260 445 260 445 175 520 c 128,-1,11
 90 595 90 595 90 729 c 0,12,13
 90 887 90 887 201 968 c 128,-1,14
 312 1049 312 1049 477 1049 c 0,15,16
 613 1049 613 1049 710 1010.5 c 128,-1,17
 807 972 807 972 884 908 c 1,18,-1
 755 756 l 1,19,20
 693 798 693 798 627 825 c 128,-1,21
 561 852 561 852 477 852 c 0,22,23
 377 852 377 852 338 816.5 c 128,-1,24
 299 781 299 781 299 727 c 0,25,26
 299 693 299 693 328 664 c 128,-1,27
 357 635 357 635 436 629 c 2,28,-1
 608 617 l 2,29,30
 769 606 769 606 839 517.5 c 128,-1,31
 909 429 909 429 909 306 c 0,32,33
 909 153 909 153 784 70 c 128,-1,34
 659 -13 659 -13 479 -13 c 0,35,36
 220 -13 220 -13 22 172 c 1,0,-1
EndSplineSet
EndChar

StartChar: z
Encoding: 122 122 53
Width: 909
GlyphClass: 1
Flags: W
LayerCount: 2
Fore
SplineSet
69 -1 m 1,0,-1
 69 164 l 1,1,-1
 589 852 l 1,2,-1
 98 852 l 1,3,-1
 98 1037 l 1,4,-1
 843 1037 l 1,5,-1
 843 871 l 1,6,-1
 323 195 l 1,7,-1
 843 195 l 1,8,-1
 843 -1 l 1,9,-1
 69 -1 l 1,0,-1
EndSplineSet
EndChar

StartChar: n
Encoding: 110 110 54
Width: 1099
GlyphClass: 1
Flags: W
LayerCount: 2
Fore
SplineSet
137 -1 m 1,0,-1
 137 1037 l 1,1,-1
 346 1037 l 1,2,-1
 346 926 l 1,3,-1
 350 926 l 1,4,5
 447 1049 447 1049 620 1049 c 0,6,7
 741 1049 741 1049 853.5 957 c 128,-1,8
 966 865 966 865 966 689 c 2,9,-1
 966 -1 l 1,10,-1
 757 -1 l 1,11,-1
 757 617 l 2,12,13
 757 722 757 722 698.5 781 c 128,-1,14
 640 840 640 840 553 840 c 0,15,16
 463 840 463 840 404.5 781 c 128,-1,17
 346 722 346 722 346 617 c 2,18,-1
 346 -1 l 1,19,-1
 137 -1 l 1,0,-1
EndSplineSet
EndChar

StartChar: i
Encoding: 105 105 55
Width: 491
GlyphClass: 1
Flags: W
LayerCount: 2
Fore
SplineSet
143 -1 m 1,0,-1
 143 1037 l 1,1,-1
 352 1037 l 1,2,-1
 352 -1 l 1,3,-1
 143 -1 l 1,0,-1
143 1247 m 1,4,-1
 143 1456 l 1,5,-1
 352 1456 l 1,6,-1
 352 1247 l 1,7,-1
 143 1247 l 1,4,-1
EndSplineSet
EndChar

StartChar: m
Encoding: 109 109 56
Width: 1744
GlyphClass: 1
Flags: W
LayerCount: 2
Fore
SplineSet
149 -1 m 1,0,-1
 149 1037 l 1,1,-1
 358 1037 l 1,2,-1
 358 926 l 1,3,-1
 362 926 l 1,4,5
 461 1049 461 1049 632 1049 c 0,6,7
 741 1049 741 1049 805 1010 c 128,-1,8
 869 971 869 971 925 914 c 1,9,10
 1048 1049 1048 1049 1253 1049 c 0,11,12
 1374 1049 1374 1049 1486.5 957 c 128,-1,13
 1599 865 1599 865 1599 689 c 2,14,-1
 1599 -1 l 1,15,-1
 1390 -1 l 1,16,-1
 1390 617 l 2,17,18
 1390 722 1390 722 1331 781 c 128,-1,19
 1272 840 1272 840 1185 840 c 0,20,21
 1095 840 1095 840 1036.5 781 c 128,-1,22
 978 722 978 722 978 617 c 2,23,-1
 978 -1 l 1,24,-1
 770 -1 l 1,25,-1
 770 617 l 2,26,27
 770 722 770 722 711 781 c 128,-1,28
 652 840 652 840 565 840 c 0,29,30
 475 840 475 840 416.5 781 c 128,-1,31
 358 722 358 722 358 617 c 2,32,-1
 358 -1 l 1,33,-1
 149 -1 l 1,0,-1
EndSplineSet
EndChar

StartChar: j
Encoding: 106 106 57
Width: 528
GlyphClass: 1
Flags: W
LayerCount: 2
Fore
SplineSet
163 -113 m 2,0,-1
 163 1037 l 1,1,-1
 372 1037 l 1,2,-1
 372 -130 l 2,3,4
 372 -260 372 -260 286.5 -340.5 c 128,-1,5
 201 -421 201 -421 69 -421 c 2,6,-1
 -12 -421 l 1,7,-1
 -12 -224 l 1,8,-1
 47 -224 l 2,9,10
 163 -224 163 -224 163 -113 c 2,0,-1
163 1247 m 1,11,-1
 163 1456 l 1,12,-1
 372 1456 l 1,13,-1
 372 1247 l 1,14,-1
 163 1247 l 1,11,-1
EndSplineSet
EndChar

StartChar: v
Encoding: 118 118 58
Width: 909
GlyphClass: 1
Flags: W
LayerCount: 2
Fore
SplineSet
370 -1 m 1,0,-1
 -10 1037 l 1,1,-1
 211 1037 l 1,2,-1
 454 310 l 1,3,-1
 458 310 l 1,4,-1
 702 1037 l 1,5,-1
 923 1037 l 1,6,-1
 542 -1 l 1,7,-1
 370 -1 l 1,0,-1
EndSplineSet
EndChar

StartChar: w
Encoding: 119 119 59
Width: 1478
GlyphClass: 1
Flags: W
LayerCount: 2
Fore
SplineSet
960 -1 m 1,0,-1
 743 725 l 1,1,-1
 739 725 l 1,2,-1
 522 -1 l 1,3,-1
 338 -1 l 1,4,-1
 6 1037 l 1,5,-1
 227 1037 l 1,6,-1
 426 310 l 1,7,-1
 430 310 l 1,8,-1
 665 1037 l 1,9,-1
 817 1037 l 1,10,-1
 1052 310 l 1,11,-1
 1056 310 l 1,12,-1
 1255 1037 l 1,13,-1
 1476 1037 l 1,14,-1
 1144 -1 l 1,15,-1
 960 -1 l 1,0,-1
EndSplineSet
EndChar

StartChar: x
Encoding: 120 120 60
Width: 983
GlyphClass: 1
Flags: W
LayerCount: 2
Fore
SplineSet
376 529 m 1,0,-1
 36 1037 l 1,1,-1
 286 1037 l 1,2,-1
 493 701 l 1,3,-1
 700 1037 l 1,4,-1
 950 1037 l 1,5,-1
 610 529 l 1,6,-1
 964 -1 l 1,7,-1
 714 -1 l 1,8,-1
 493 344 l 1,9,-1
 272 -1 l 1,10,-1
 22 -1 l 1,11,-1
 376 529 l 1,0,-1
EndSplineSet
EndChar

StartChar: y
Encoding: 121 121 61
Width: 909
GlyphClass: 1
Flags: W
LayerCount: 2
Fore
SplineSet
360 39 m 1,0,-1
 -12 1037 l 1,1,-1
 208 1037 l 1,2,-1
 454 310 l 1,3,-1
 458 310 l 1,4,-1
 704 1037 l 1,5,-1
 925 1037 l 1,6,-1
 479 -216 l 2,7,8
 435 -336 435 -336 358 -378.5 c 128,-1,9
 281 -421 281 -421 186 -421 c 2,10,-1
 116 -421 l 1,11,-1
 116 -224 l 1,12,-1
 178 -224 l 2,13,14
 272 -224 272 -224 303 -134 c 2,15,-1
 360 39 l 1,0,-1
EndSplineSet
EndChar

StartChar: p
Encoding: 112 112 62
Width: 1062
GlyphClass: 1
Flags: W
LayerCount: 2
Fore
SplineSet
137 -421 m 1,0,-1
 137 1037 l 1,1,-1
 346 1037 l 1,2,-1
 346 928 l 1,3,4
 455 1049 455 1049 614 1049 c 0,5,6
 709 1049 709 1049 778 1010.5 c 128,-1,7
 847 972 847 972 892 914 c 0,8,9
 935 858 935 858 950.5 783.5 c 128,-1,10
 966 709 966 709 966 517 c 0,11,12
 966 326 966 326 950.5 251 c 128,-1,13
 935 176 935 176 892 121 c 0,14,15
 847 62 847 62 778 24.5 c 128,-1,16
 709 -13 709 -13 614 -13 c 0,17,18
 533 -13 533 -13 468.5 20 c 128,-1,19
 404 53 404 53 346 109 c 1,20,-1
 346 -421 l 1,21,-1
 137 -421 l 1,0,-1
551 195 m 256,22,23
 698 195 698 195 727.5 296 c 128,-1,24
 757 397 757 397 757 517 c 256,25,26
 757 637 757 637 727.5 738.5 c 128,-1,27
 698 840 698 840 551 840 c 256,28,29
 404 840 404 840 375 735 c 128,-1,30
 346 630 346 630 346 517 c 256,31,32
 346 404 346 404 375 299.5 c 128,-1,33
 404 195 404 195 551 195 c 256,22,23
EndSplineSet
EndChar

StartChar: u
Encoding: 117 117 63
Width: 1099
GlyphClass: 1
Flags: W
LayerCount: 2
Fore
SplineSet
137 347 m 2,0,-1
 137 1037 l 1,1,-1
 346 1037 l 1,2,-1
 346 418 l 2,3,4
 346 312 346 312 404.5 253.5 c 128,-1,5
 463 195 463 195 553 195 c 0,6,7
 640 195 640 195 698.5 253.5 c 128,-1,8
 757 312 757 312 757 418 c 2,9,-1
 757 1037 l 1,10,-1
 966 1037 l 1,11,-1
 966 -1 l 1,12,-1
 757 -1 l 1,13,-1
 757 109 l 1,14,-1
 753 109 l 1,15,16
 656 -13 656 -13 485 -13 c 0,17,18
 362 -13 362 -13 249.5 78.5 c 128,-1,19
 137 170 137 170 137 347 c 2,0,-1
EndSplineSet
EndChar

StartChar: r
Encoding: 114 114 64
Width: 796
GlyphClass: 1
Flags: W
LayerCount: 2
Fore
SplineSet
137 -1 m 1,0,-1
 137 1037 l 1,1,-1
 346 1037 l 1,2,-1
 346 926 l 1,3,-1
 350 926 l 1,4,5
 447 1049 447 1049 620 1049 c 0,6,7
 734 1049 734 1049 837 969 c 1,8,-1
 686 789 l 1,9,10
 618 840 618 840 548 840 c 0,11,12
 471 840 471 840 408.5 788.5 c 128,-1,13
 346 737 346 737 346 623 c 2,14,-1
 346 -1 l 1,15,-1
 137 -1 l 1,0,-1
EndSplineSet
EndChar

StartChar: t
Encoding: 116 116 65
Width: 569
GlyphClass: 1
Flags: W
LayerCount: 2
Fore
SplineSet
149 1037 m 1,0,-1
 149 1352 l 1,1,-1
 358 1352 l 1,2,-1
 358 1037 l 1,3,-1
 510 1037 l 1,4,-1
 510 877 l 1,5,-1
 358 877 l 1,6,-1
 358 273 l 2,7,8
 358 195 358 195 432 195 c 2,9,-1
 510 195 l 1,10,-1
 510 -1 l 1,11,-1
 401 -1 l 2,12,13
 292 -1 292 -1 220.5 65 c 128,-1,14
 149 131 149 131 149 254 c 2,15,-1
 149 877 l 1,16,-1
 45 877 l 1,17,-1
 45 1037 l 1,18,-1
 149 1037 l 1,0,-1
EndSplineSet
EndChar

StartChar: five
Encoding: 53 53 66
Width: 983
GlyphClass: 1
Flags: W
LayerCount: 2
Fore
SplineSet
104 668 m 1,0,-1
 104 1456 l 1,1,-1
 880 1456 l 1,2,-1
 880 1247 l 1,3,-1
 301 1247 l 1,4,-1
 301 918 l 1,5,6
 401 998 401 998 534 998 c 0,7,8
 617 998 617 998 685.5 966 c 128,-1,9
 754 934 754 934 794 891 c 0,10,11
 854 826 854 826 881.5 749.5 c 128,-1,12
 909 673 909 673 909 492 c 0,13,14
 909 345 909 345 887.5 273.5 c 128,-1,15
 866 202 866 202 819 142 c 0,16,17
 774 85 774 85 693 36 c 128,-1,18
 612 -13 612 -13 503 -13 c 0,19,20
 362 -13 362 -13 231 74 c 128,-1,21
 100 161 100 161 77 365 c 1,22,-1
 286 365 l 1,23,24
 323 195 323 195 495 195 c 0,25,26
 648 195 648 195 674 300 c 128,-1,27
 700 405 700 405 700 508 c 0,28,29
 700 629 700 629 659 709 c 128,-1,30
 618 789 618 789 489 789 c 0,31,32
 368 789 368 789 301 668 c 1,33,-1
 104 668 l 1,0,-1
EndSplineSet
EndChar

StartChar: seven
Encoding: 55 55 67
Width: 983
GlyphClass: 1
Flags: W
LayerCount: 2
Fore
SplineSet
106 1037 m 1,0,-1
 106 1456 l 1,1,-1
 935 1456 l 1,2,-1
 935 1247 l 1,3,-1
 442 -1 l 1,4,-1
 208 -1 l 1,5,-1
 702 1247 l 1,6,-1
 315 1247 l 1,7,-1
 315 1037 l 1,8,-1
 106 1037 l 1,0,-1
EndSplineSet
EndChar

StartChar: eight
Encoding: 56 56 68
Width: 983
GlyphClass: 1
Flags: W
LayerCount: 2
Fore
SplineSet
284 1051 m 0,0,1
 284 948 284 948 348.5 895 c 128,-1,2
 413 842 413 842 493 842 c 256,3,4
 573 842 573 842 637.5 895 c 128,-1,5
 702 948 702 948 702 1051 c 0,6,7
 702 1153 702 1153 637.5 1206.5 c 128,-1,8
 573 1260 573 1260 493 1260 c 256,9,10
 413 1260 413 1260 348.5 1206.5 c 128,-1,11
 284 1153 284 1153 284 1051 c 0,0,1
49 424 m 0,12,13
 49 637 49 637 221 752 c 1,14,15
 156 810 156 810 115.5 880.5 c 128,-1,16
 75 951 75 951 75 1047 c 0,17,18
 75 1223 75 1223 195.5 1346 c 128,-1,19
 316 1469 316 1469 493 1469 c 256,20,21
 670 1469 670 1469 790.5 1346 c 128,-1,22
 911 1223 911 1223 911 1047 c 0,23,24
 911 951 911 951 870 880.5 c 128,-1,25
 829 810 829 810 766 752 c 1,26,27
 937 636 937 636 937 424 c 0,28,29
 937 230 937 230 805.5 108.5 c 128,-1,30
 674 -13 674 -13 493 -13 c 0,31,32
 311 -13 311 -13 180 108.5 c 128,-1,33
 49 230 49 230 49 424 c 0,12,13
258 426 m 256,34,35
 258 326 258 326 328.5 260.5 c 128,-1,36
 399 195 399 195 493 195 c 0,37,38
 586 195 586 195 657.5 260.5 c 128,-1,39
 729 326 729 326 729 426 c 256,40,41
 729 526 729 526 657.5 592 c 128,-1,42
 586 658 586 658 493 658 c 0,43,44
 399 658 399 658 328.5 592 c 128,-1,45
 258 526 258 526 258 426 c 256,34,35
EndSplineSet
EndChar

StartChar: colon
Encoding: 58 58 69
Width: 491
GlyphClass: 1
Flags: W
LayerCount: 2
Fore
SplineSet
143 463 m 1,0,-1
 143 672 l 1,1,-1
 352 672 l 1,2,-1
 352 463 l 1,3,-1
 143 463 l 1,0,-1
143 -1 m 1,4,-1
 143 207 l 1,5,-1
 352 207 l 1,6,-1
 352 -1 l 1,7,-1
 143 -1 l 1,4,-1
EndSplineSet
EndChar

StartChar: semicolon
Encoding: 59 59 70
Width: 491
GlyphClass: 1
Flags: W
LayerCount: 2
Fore
SplineSet
143 -152 m 1,0,-1
 143 207 l 1,1,-1
 352 207 l 1,2,-1
 352 -1 l 1,3,-1
 143 -152 l 1,0,-1
143 463 m 1,4,-1
 143 672 l 1,5,-1
 352 672 l 1,6,-1
 352 463 l 1,7,-1
 143 463 l 1,4,-1
EndSplineSet
EndChar

StartChar: g
Encoding: 103 103 71
Width: 1062
GlyphClass: 1
Flags: W
LayerCount: 2
Fore
SplineSet
720 0 m 2,0,-1
 720 107 l 1,1,2
 611 -13 611 -13 452 -13 c 0,3,4
 350 -13 350 -13 281.5 27.5 c 128,-1,5
 213 68 213 68 178 113 c 0,6,7
 133 171 133 171 116.5 236 c 128,-1,8
 100 301 100 301 100 517 c 256,9,10
 100 733 100 733 116.5 798 c 128,-1,11
 133 863 133 863 178 922 c 0,12,13
 213 966 213 966 281.5 1007.5 c 128,-1,14
 350 1049 350 1049 452 1049 c 0,15,16
 604 1049 604 1049 720 926 c 1,17,-1
 720 1037 l 1,18,-1
 929 1037 l 1,19,-1
 929 23 l 2,20,21
 929 -211 929 -211 792.5 -322 c 128,-1,22
 656 -433 656 -433 479 -433 c 0,23,24
 379 -433 379 -433 283 -385 c 128,-1,25
 187 -337 187 -337 118 -259 c 1,26,-1
 280 -130 l 1,27,28
 318 -168 318 -168 370.5 -196 c 128,-1,29
 423 -224 423 -224 483 -224 c 0,30,31
 587 -224 587 -224 653.5 -166 c 128,-1,32
 720 -108 720 -108 720 0 c 2,0,-1
309 517 m 256,33,34
 309 392 309 392 315.5 351 c 128,-1,35
 322 310 322 310 350 275 c 0,36,37
 371 247 371 247 412 221 c 128,-1,38
 453 195 453 195 516 195 c 0,39,40
 577 195 577 195 617.5 221 c 128,-1,41
 658 247 658 247 680 275 c 0,42,43
 707 310 707 310 713.5 351 c 128,-1,44
 720 392 720 392 720 517 c 256,45,46
 720 642 720 642 713.5 683 c 128,-1,47
 707 724 707 724 680 760 c 0,48,49
 658 787 658 787 617.5 813.5 c 128,-1,50
 577 840 577 840 516 840 c 0,51,52
 453 840 453 840 412 813.5 c 128,-1,53
 371 787 371 787 350 760 c 0,54,55
 322 724 322 724 315.5 683 c 128,-1,56
 309 642 309 642 309 517 c 256,33,34
EndSplineSet
EndChar

StartChar: B
Encoding: 66 66 72
Width: 1249
GlyphClass: 1
Flags: W
LayerCount: 2
Fore
SplineSet
155 -1 m 1,0,-1
 155 1456 l 1,1,-1
 720 1456 l 2,2,3
 933 1456 933 1456 1042.5 1346.5 c 128,-1,4
 1152 1237 1152 1237 1152 1065 c 0,5,6
 1152 975 1152 975 1108 892 c 128,-1,7
 1064 809 1064 809 937 752 c 1,8,-1
 937 748 l 1,9,10
 1057 720 1057 720 1116 621.5 c 128,-1,11
 1175 523 1175 523 1175 412 c 0,12,13
 1175 223 1175 223 1054.5 111 c 128,-1,14
 934 -1 934 -1 770 -1 c 2,15,-1
 155 -1 l 1,0,-1
716 646 m 2,16,-1
 376 646 l 1,17,-1
 376 207 l 1,18,-1
 716 207 l 2,19,20
 839 207 839 207 896.5 273.5 c 128,-1,21
 954 340 954 340 954 426 c 256,22,23
 954 512 954 512 896.5 579 c 128,-1,24
 839 646 839 646 716 646 c 2,16,-1
696 1260 m 2,25,-1
 376 1260 l 1,26,-1
 376 842 l 1,27,-1
 696 842 l 2,28,29
 815 842 815 842 873 903 c 128,-1,30
 931 964 931 964 931 1051 c 0,31,32
 931 1135 931 1135 873 1197.5 c 128,-1,33
 815 1260 815 1260 696 1260 c 2,25,-1
EndSplineSet
EndChar

StartChar: two
Encoding: 50 50 73
Width: 983
GlyphClass: 1
Flags: W
LayerCount: 2
Fore
SplineSet
67 -1 m 1,0,-1
 67 195 l 1,1,-1
 637 908 l 2,2,3
 670 950 670 950 680 985 c 128,-1,4
 690 1020 690 1020 690 1053 c 0,5,6
 690 1129 690 1129 636 1194.5 c 128,-1,7
 582 1260 582 1260 489 1260 c 0,8,9
 404 1260 404 1260 343.5 1203.5 c 128,-1,10
 283 1147 283 1147 276 1049 c 1,11,-1
 67 1049 l 1,12,13
 68 1226 68 1226 188 1347.5 c 128,-1,14
 308 1469 308 1469 473 1469 c 0,15,16
 655 1469 655 1469 776.5 1346.5 c 128,-1,17
 898 1224 898 1224 898 1051 c 0,18,19
 898 903 898 903 811 795 c 2,20,-1
 342 207 l 1,21,-1
 898 207 l 1,22,-1
 898 -1 l 1,23,-1
 67 -1 l 1,0,-1
EndSplineSet
EndChar

StartChar: three
Encoding: 51 51 74
Width: 983
GlyphClass: 1
Flags: W
LayerCount: 2
Fore
SplineSet
362 658 m 1,0,-1
 362 842 l 1,1,-1
 434 842 l 2,2,3
 538 842 538 842 598.5 900.5 c 128,-1,4
 659 959 659 959 659 1049 c 0,5,6
 659 1138 659 1138 596 1199 c 128,-1,7
 533 1260 533 1260 446 1260 c 0,8,9
 380 1260 380 1260 321 1216 c 128,-1,10
 262 1172 262 1172 245 1084 c 1,11,-1
 36 1084 l 1,12,13
 48 1238 48 1238 165 1353.5 c 128,-1,14
 282 1469 282 1469 438 1469 c 0,15,16
 633 1469 633 1469 750.5 1340.5 c 128,-1,17
 868 1212 868 1212 868 1053 c 0,18,19
 868 969 868 969 835 889.5 c 128,-1,20
 802 810 802 810 712 752 c 1,21,22
 804 693 804 693 844 607 c 128,-1,23
 884 521 884 521 884 433 c 0,24,25
 884 229 884 229 756 108 c 128,-1,26
 628 -13 628 -13 442 -13 c 0,27,28
 294 -13 294 -13 175.5 82.5 c 128,-1,29
 57 178 57 178 28 361 c 1,30,-1
 237 361 l 1,31,32
 266 286 266 286 315 240.5 c 128,-1,33
 364 195 364 195 454 195 c 0,34,35
 541 195 541 195 608 256.5 c 128,-1,36
 675 318 675 318 675 426 c 0,37,38
 675 535 675 535 608.5 596.5 c 128,-1,39
 542 658 542 658 450 658 c 2,40,-1
 362 658 l 1,0,-1
EndSplineSet
EndChar

StartChar: four
Encoding: 52 52 75
Width: 983
GlyphClass: 1
Flags: W
LayerCount: 2
Fore
SplineSet
26 215 m 1,0,-1
 26 412 l 1,1,-1
 514 1456 l 1,2,-1
 747 1456 l 1,3,-1
 254 412 l 1,4,-1
 634 412 l 1,5,-1
 634 832 l 1,6,-1
 843 832 l 1,7,-1
 843 412 l 1,8,-1
 960 412 l 1,9,-1
 960 215 l 1,10,-1
 843 215 l 1,11,-1
 843 -1 l 1,12,-1
 634 -1 l 1,13,-1
 634 215 l 1,14,-1
 26 215 l 1,0,-1
EndSplineSet
EndChar

StartChar: bracketleft
Encoding: 91 91 76
Width: 569
GlyphClass: 1
Flags: W
LayerCount: 2
Fore
SplineSet
149 -210 m 1,0,-1
 149 1456 l 1,1,-1
 528 1456 l 1,2,-1
 528 1321 l 1,3,-1
 333 1321 l 1,4,-1
 333 -75 l 1,5,-1
 528 -75 l 1,6,-1
 528 -210 l 1,7,-1
 149 -210 l 1,0,-1
EndSplineSet
EndChar

StartChar: bracketright
Encoding: 93 93 77
Width: 569
GlyphClass: 1
Flags: W
LayerCount: 2
Fore
SplineSet
239 -75 m 1,0,-1
 239 1321 l 1,1,-1
 45 1321 l 1,2,-1
 45 1456 l 1,3,-1
 424 1456 l 1,4,-1
 424 -210 l 1,5,-1
 45 -210 l 1,6,-1
 45 -75 l 1,7,-1
 239 -75 l 1,0,-1
EndSplineSet
EndChar

StartChar: equal
Encoding: 61 61 78
Width: 1228
GlyphClass: 1
Flags: W
LayerCount: 2
Fore
SplineSet
98 641 m 1,0,-1
 98 801 l 1,1,-1
 1134 801 l 1,2,-1
 1134 641 l 1,3,-1
 98 641 l 1,0,-1
98 232 m 1,4,-1
 98 392 l 1,5,-1
 1134 392 l 1,6,-1
 1134 232 l 1,7,-1
 98 232 l 1,4,-1
EndSplineSet
EndChar

StartChar: at
Encoding: 64 64 79
Width: 1638
GlyphClass: 1
Flags: W
LayerCount: 2
Fore
SplineSet
538 609 m 0,0,1
 538 525 538 525 587.5 471.5 c 128,-1,2
 637 418 637 418 714 418 c 0,3,4
 847 418 847 418 940.5 568 c 128,-1,5
 1034 718 1034 718 1034 838 c 0,6,7
 1034 907 1034 907 987 963.5 c 128,-1,8
 940 1020 940 1020 868 1020 c 0,9,10
 723 1020 723 1020 630.5 877.5 c 128,-1,11
 538 735 538 735 538 609 c 0,0,1
1103 996 m 1,12,-1
 1128 1100 l 1,13,-1
 1263 1100 l 1,14,-1
 1099 570 l 2,15,16
 1079 508 1079 508 1079 465 c 0,17,18
 1079 406 1079 406 1126 406 c 0,19,20
 1213 406 1213 406 1307.5 552.5 c 128,-1,21
 1402 699 1402 699 1402 846 c 0,22,23
 1402 1047 1402 1047 1250 1178 c 128,-1,24
 1098 1309 1098 1309 855 1309 c 0,25,26
 564 1309 564 1309 401.5 1135.5 c 128,-1,27
 239 962 239 962 239 732 c 0,28,29
 239 484 239 484 408.5 315 c 128,-1,30
 578 146 578 146 866 146 c 0,31,32
 1049 146 1049 146 1171.5 194.5 c 128,-1,33
 1294 243 1294 243 1382 336 c 1,34,-1
 1517 336 l 1,35,36
 1414 171 1414 171 1235 79 c 128,-1,37
 1056 -13 1056 -13 841 -13 c 0,38,39
 515 -13 515 -13 297 196.5 c 128,-1,40
 79 406 79 406 79 736 c 0,41,42
 79 1058 79 1058 299 1263.5 c 128,-1,43
 519 1469 519 1469 845 1469 c 0,44,45
 1139 1469 1139 1469 1350.5 1297 c 128,-1,46
 1562 1125 1562 1125 1562 856 c 0,47,48
 1562 599 1562 599 1393.5 441 c 128,-1,49
 1225 283 1225 283 1095 283 c 0,50,51
 953 283 953 283 931 414 c 1,52,-1
 927 414 l 1,53,54
 885 365 885 365 829.5 324 c 128,-1,55
 774 283 774 283 669 283 c 0,56,57
 541 283 541 283 459.5 374.5 c 128,-1,58
 378 466 378 466 378 594 c 0,59,60
 378 797 378 797 513 976 c 128,-1,61
 648 1155 648 1155 868 1155 c 0,62,63
 1032 1155 1032 1155 1099 996 c 1,64,-1
 1103 996 l 1,12,-1
EndSplineSet
EndChar

StartChar: question
Encoding: 63 63 80
Width: 948
GlyphClass: 1
Flags: W
LayerCount: 2
Fore
SplineSet
348 359 m 1,0,-1
 348 492 l 2,1,2
 348 552 348 552 357.5 596.5 c 128,-1,3
 367 641 367 641 401 689 c 2,4,-1
 583 942 l 2,5,6
 634 1011 634 1011 634 1078 c 0,7,8
 634 1162 634 1162 576 1211 c 128,-1,9
 518 1260 518 1260 458 1260 c 0,10,11
 381 1260 381 1260 325.5 1209.5 c 128,-1,12
 270 1159 270 1159 270 1037 c 1,13,-1
 61 1037 l 1,14,-1
 61 1078 l 2,15,16
 61 1242 61 1242 176.5 1355.5 c 128,-1,17
 292 1469 292 1469 448 1469 c 0,18,19
 600 1469 600 1469 721.5 1362 c 128,-1,20
 843 1255 843 1255 843 1076 c 0,21,22
 843 951 843 951 778 861 c 2,23,-1
 591 605 l 2,24,25
 557 557 557 557 557 476 c 2,26,-1
 557 359 l 1,27,-1
 348 359 l 1,0,-1
348 -1 m 1,28,-1
 348 207 l 1,29,-1
 557 207 l 1,30,-1
 557 -1 l 1,31,-1
 348 -1 l 1,28,-1
EndSplineSet
EndChar

StartChar: germandbls
Encoding: 223 223 81
Width: 1099
GlyphClass: 1
Flags: W
LayerCount: 2
Fore
SplineSet
526 789 m 1,0,-1
 526 985 l 1,1,-1
 651 985 l 2,2,3
 761 985 761 985 761 1106 c 0,4,5
 761 1186 761 1186 729 1217 c 1,6,7
 672 1263 672 1263 548 1260 c 0,8,9
 434 1257 434 1257 389.5 1224.5 c 128,-1,10
 345 1192 345 1192 342 1129 c 2,11,-1
 342 -1 l 1,12,-1
 133 -1 l 1,13,-1
 133 1129 l 2,14,15
 133 1300 133 1300 256.5 1384.5 c 128,-1,16
 380 1469 380 1469 569 1469 c 0,17,18
 747 1469 747 1469 858.5 1374.5 c 128,-1,19
 970 1280 970 1280 970 1123 c 0,20,21
 970 954 970 954 821 891 c 1,22,23
 970 831 970 831 970 664 c 2,24,-1
 970 293 l 2,25,26
 970 171 970 171 890.5 85 c 128,-1,27
 811 -1 811 -1 682 -1 c 2,28,-1
 553 -1 l 1,29,-1
 553 195 l 1,30,-1
 626 195 l 2,31,32
 761 195 761 195 761 304 c 2,33,-1
 761 668 l 2,34,35
 761 789 761 789 647 789 c 2,36,-1
 526 789 l 1,0,-1
EndSplineSet
EndChar

StartChar: Udieresis
Encoding: 220 220 82
Width: 1290
GlyphClass: 1
Flags: W
LayerCount: 2
Fore
SplineSet
129 492 m 2,0,-1
 129 1456 l 1,1,-1
 350 1456 l 1,2,-1
 350 517 l 2,3,4
 350 366 350 366 435.5 286.5 c 128,-1,5
 521 207 521 207 647 207 c 256,6,7
 773 207 773 207 858.5 286.5 c 128,-1,8
 944 366 944 366 944 517 c 2,9,-1
 944 1456 l 1,10,-1
 1165 1456 l 1,11,-1
 1165 492 l 2,12,13
 1165 264 1165 264 1014 125.5 c 128,-1,14
 863 -13 863 -13 647 -13 c 0,15,16
 430 -13 430 -13 279.5 125.5 c 128,-1,17
 129 264 129 264 129 492 c 2,0,-1
716 1557 m 1,18,-1
 716 1778 l 1,19,-1
 937 1778 l 1,20,-1
 937 1557 l 1,21,-1
 716 1557 l 1,18,-1
356 1557 m 1,22,-1
 356 1778 l 1,23,-1
 577 1778 l 1,24,-1
 577 1557 l 1,25,-1
 356 1557 l 1,22,-1
EndSplineSet
EndChar

StartChar: Odieresis
Encoding: 214 214 83
Width: 1249
GlyphClass: 1
Flags: W
LayerCount: 2
Fore
SplineSet
106 727 m 256,0,1
 106 990 106 990 120 1066 c 128,-1,2
 134 1142 134 1142 170 1206 c 0,3,4
 221 1301 221 1301 337.5 1385 c 128,-1,5
 454 1469 454 1469 626 1469 c 0,6,7
 797 1469 797 1469 913.5 1385 c 128,-1,8
 1030 1301 1030 1301 1083 1206 c 0,9,10
 1118 1142 1118 1142 1132 1066 c 128,-1,11
 1146 990 1146 990 1146 727 c 256,12,13
 1146 464 1146 464 1132 388 c 128,-1,14
 1118 312 1118 312 1083 248 c 0,15,16
 1030 152 1030 152 913.5 69.5 c 128,-1,17
 797 -13 797 -13 626 -13 c 0,18,19
 454 -13 454 -13 337.5 69.5 c 128,-1,20
 221 152 221 152 170 248 c 0,21,22
 134 312 134 312 120 388 c 128,-1,23
 106 464 106 464 106 727 c 256,0,1
327 727 m 0,24,25
 327 502 327 502 342.5 435 c 128,-1,26
 358 368 358 368 401 314 c 0,27,28
 434 270 434 270 491 238.5 c 128,-1,29
 548 207 548 207 626 207 c 256,30,31
 704 207 704 207 761 238.5 c 128,-1,32
 818 270 818 270 851 314 c 0,33,34
 894 368 894 368 909.5 435 c 128,-1,35
 925 502 925 502 925 727 c 0,36,37
 925 951 925 951 909.5 1018 c 128,-1,38
 894 1085 894 1085 851 1141 c 0,39,40
 818 1183 818 1183 761 1215 c 128,-1,41
 704 1247 704 1247 626 1247 c 256,42,43
 548 1247 548 1247 491 1215 c 128,-1,44
 434 1183 434 1183 401 1141 c 0,45,46
 358 1085 358 1085 342.5 1018 c 128,-1,47
 327 951 327 951 327 727 c 0,24,25
696 1557 m 1,48,-1
 696 1778 l 1,49,-1
 917 1778 l 1,50,-1
 917 1557 l 1,51,-1
 696 1557 l 1,48,-1
335 1557 m 1,52,-1
 335 1778 l 1,53,-1
 557 1778 l 1,54,-1
 557 1557 l 1,55,-1
 335 1557 l 1,52,-1
EndSplineSet
EndChar

StartChar: adieresis
Encoding: 228 228 84
Width: 1024
GlyphClass: 1
Flags: W
LayerCount: 2
Fore
SplineSet
682 -1 m 1,0,-1
 682 91 l 1,1,-1
 677 91 l 1,2,3
 614 -13 614 -13 421 -13 c 0,4,5
 247 -13 247 -13 151 77.5 c 128,-1,6
 55 168 55 168 55 304 c 0,7,8
 55 427 55 427 140 519 c 128,-1,9
 225 611 225 611 393 611 c 2,10,-1
 682 611 l 1,11,-1
 682 719 l 2,12,13
 682 852 682 852 469 852 c 0,14,15
 321 852 321 852 272 773 c 1,16,-1
 108 897 l 1,17,18
 217 1049 217 1049 458 1049 c 0,19,20
 650 1049 650 1049 770 974 c 128,-1,21
 890 899 890 899 890 707 c 2,22,-1
 890 -1 l 1,23,-1
 682 -1 l 1,0,-1
682 363 m 2,24,-1
 682 439 l 1,25,-1
 432 439 l 2,26,27
 251 439 251 439 251 314 c 0,28,29
 251 261 251 261 296.5 222 c 128,-1,30
 342 183 342 183 448 183 c 0,31,32
 578 183 578 183 630 212 c 128,-1,33
 682 241 682 241 682 363 c 2,24,-1
583 1198 m 1,34,-1
 583 1419 l 1,35,-1
 804 1419 l 1,36,-1
 804 1198 l 1,37,-1
 583 1198 l 1,34,-1
223 1198 m 1,38,-1
 223 1419 l 1,39,-1
 444 1419 l 1,40,-1
 444 1198 l 1,41,-1
 223 1198 l 1,38,-1
EndSplineSet
EndChar

StartChar: odieresis
Encoding: 246 246 85
Width: 1024
GlyphClass: 1
Flags: W
LayerCount: 2
Fore
SplineSet
86 519 m 0,0,1
 86 686 86 686 112 768 c 128,-1,2
 138 850 138 850 198 916 c 0,3,4
 241 963 241 963 316.5 1006 c 128,-1,5
 392 1049 392 1049 514 1049 c 0,6,7
 634 1049 634 1049 710 1006 c 128,-1,8
 786 963 786 963 829 916 c 0,9,10
 889 850 889 850 915 768 c 128,-1,11
 941 686 941 686 941 519 c 0,12,13
 941 349 941 349 915 267 c 128,-1,14
 889 185 889 185 829 119 c 0,15,16
 786 71 786 71 710 29 c 128,-1,17
 634 -13 634 -13 514 -13 c 0,18,19
 392 -13 392 -13 316.5 29 c 128,-1,20
 241 71 241 71 198 119 c 0,21,22
 138 185 138 185 112 267 c 128,-1,23
 86 349 86 349 86 519 c 0,0,1
733 517 m 256,24,25
 733 630 733 630 721.5 676 c 128,-1,26
 710 722 710 722 682 764 c 0,27,28
 627 840 627 840 514 840 c 0,29,30
 399 840 399 840 346 764 c 0,31,32
 316 722 316 722 305.5 676 c 128,-1,33
 295 630 295 630 295 519 c 0,34,35
 295 405 295 405 305.5 358.5 c 128,-1,36
 316 312 316 312 346 271 c 0,37,38
 399 195 399 195 514 195 c 0,39,40
 627 195 627 195 682 271 c 0,41,42
 710 312 710 312 721.5 358 c 128,-1,43
 733 404 733 404 733 517 c 256,24,25
583 1198 m 1,44,-1
 583 1419 l 1,45,-1
 804 1419 l 1,46,-1
 804 1198 l 1,47,-1
 583 1198 l 1,44,-1
223 1198 m 1,48,-1
 223 1419 l 1,49,-1
 444 1419 l 1,50,-1
 444 1198 l 1,51,-1
 223 1198 l 1,48,-1
EndSplineSet
EndChar

StartChar: udieresis
Encoding: 252 252 86
Width: 1099
GlyphClass: 1
Flags: W
LayerCount: 2
Fore
SplineSet
137 347 m 2,0,-1
 137 1037 l 1,1,-1
 346 1037 l 1,2,-1
 346 418 l 2,3,4
 346 312 346 312 404.5 253.5 c 128,-1,5
 463 195 463 195 553 195 c 0,6,7
 640 195 640 195 698.5 253.5 c 128,-1,8
 757 312 757 312 757 418 c 2,9,-1
 757 1037 l 1,10,-1
 966 1037 l 1,11,-1
 966 -1 l 1,12,-1
 757 -1 l 1,13,-1
 757 109 l 1,14,-1
 753 109 l 1,15,16
 656 -13 656 -13 485 -13 c 0,17,18
 362 -13 362 -13 249.5 78.5 c 128,-1,19
 137 170 137 170 137 347 c 2,0,-1
610 1198 m 1,20,-1
 610 1419 l 1,21,-1
 831 1419 l 1,22,-1
 831 1198 l 1,23,-1
 610 1198 l 1,20,-1
249 1198 m 1,24,-1
 249 1419 l 1,25,-1
 471 1419 l 1,26,-1
 471 1198 l 1,27,-1
 249 1198 l 1,24,-1
EndSplineSet
EndChar

StartChar: L
Encoding: 76 76 87
Width: 1138
GlyphClass: 1
Flags: W
LayerCount: 2
Fore
SplineSet
155 -1 m 1,0,-1
 155 1456 l 1,1,-1
 376 1456 l 1,2,-1
 376 207 l 1,3,-1
 1087 207 l 1,4,-1
 1087 -1 l 1,5,-1
 155 -1 l 1,0,-1
EndSplineSet
EndChar

StartChar: Aring
Encoding: 197 197 88
Width: 1377
GlyphClass: 1
Flags: W
LayerCount: 2
Fore
SplineSet
413 521 m 1,0,-1
 624 1158 l 1,1,-1
 628 1158 l 1,2,-1
 839 521 l 1,3,-1
 413 521 l 1,0,-1
1015 -1 m 1,4,-1
 903 324 l 1,5,-1
 350 324 l 1,6,-1
 237 -1 l 1,7,-1
 4 -1 l 1,8,-1
 534 1456 l 1,9,-1
 718 1456 l 1,10,-1
 1249 -1 l 1,11,-1
 1015 -1 l 1,4,-1
415 1708 m 256,12,13
 415 1795 415 1795 477 1857 c 128,-1,14
 539 1919 539 1919 626 1919 c 256,15,16
 713 1919 713 1919 775 1857 c 128,-1,17
 837 1795 837 1795 837 1708 c 256,18,19
 837 1621 837 1621 775 1559 c 128,-1,20
 713 1497 713 1497 626 1497 c 256,21,22
 539 1497 539 1497 477 1559 c 128,-1,23
 415 1621 415 1621 415 1708 c 256,12,13
497 1708 m 256,24,25
 497 1654 497 1654 534.5 1616.5 c 128,-1,26
 572 1579 572 1579 626 1579 c 256,27,28
 680 1579 680 1579 717.5 1616.5 c 128,-1,29
 755 1654 755 1654 755 1708 c 256,30,31
 755 1762 755 1762 717.5 1799.5 c 128,-1,32
 680 1837 680 1837 626 1837 c 256,33,34
 572 1837 572 1837 534.5 1799.5 c 128,-1,35
 497 1762 497 1762 497 1708 c 256,24,25
EndSplineSet
EndChar

StartChar: Adieresis
Encoding: 196 196 89
Width: 1251
GlyphClass: 1
Flags: W
LayerCount: 2
Fore
SplineSet
1015 -1 m 1,0,-1
 903 324 l 1,1,-1
 632 324 l 1,2,-1
 632 521 l 1,3,-1
 838 521 l 1,4,-1
 624 1158 l 1,5,-1
 413 521 l 1,6,-1
 617 521 l 1,7,-1
 617 324 l 1,8,-1
 350 324 l 1,9,-1
 237 -1 l 1,10,-1
 4 -1 l 1,11,-1
 534 1456 l 1,12,-1
 718 1456 l 1,13,-1
 1249 -1 l 1,14,-1
 1015 -1 l 1,0,-1
331 1558 m 1,15,-1
 331 1780 l 1,16,-1
 552 1780 l 1,17,-1
 552 1558 l 1,18,-1
 331 1558 l 1,15,-1
691 1558 m 1,19,-1
 691 1780 l 1,20,-1
 912 1780 l 1,21,-1
 912 1558 l 1,22,-1
 691 1558 l 1,19,-1
EndSplineSet
EndChar

StartChar: less
Encoding: 60 60 90
Width: 1251
GlyphClass: 1
Flags: W
LayerCount: 2
Fore
SplineSet
97 462 m 1,0,-1
 97 609 l 1,1,-1
 1133 1070 l 1,2,-1
 1133 898 l 1,3,-1
 282 536 l 1,4,-1
 1133 173 l 1,5,-1
 1133 1 l 1,6,-1
 97 462 l 1,0,-1
EndSplineSet
EndChar

StartChar: greater
Encoding: 62 62 91
Width: 1213
GlyphClass: 1
Flags: W
LayerCount: 2
Fore
SplineSet
97 1 m 1,0,-1
 97 173 l 1,1,-1
 949 536 l 1,2,-1
 97 898 l 1,3,-1
 97 1070 l 1,4,-1
 1133 609 l 1,5,-1
 1133 462 l 1,6,-1
 97 1 l 1,0,-1
EndSplineSet
EndChar

StartChar: underscore
Encoding: 95 95 92
Width: 1024
GlyphClass: 1
Flags: W
LayerCount: 2
Fore
SplineSet
1 -238 m 1,0,-1
 1 -135 l 1,1,-1
 1025 -135 l 1,2,-1
 1025 -238 l 1,3,-1
 1 -238 l 1,0,-1
EndSplineSet
EndChar

StartChar: A
Encoding: 65 65 93
Width: 1276
GlyphClass: 1
Flags: W
LayerCount: 2
Fore
SplineSet
2 0 m 5,0,-1
 534 1458 l 5,1,-1
 716 1458 l 5,2,-1
 1248 0 l 5,3,-1
 1016 0 l 5,4,-1
 904 329 l 5,5,-1
 351 329 l 5,6,-1
 235 0 l 5,7,-1
 2 0 l 5,0,-1
416 524 m 5,8,-1
 838 524 l 5,9,10
 792 659 792 659 765.5 735.5 c 132,-1,11
 739 812 739 812 719.5 871 c 132,-1,12
 700 930 700 930 680 991 c 132,-1,13
 660 1052 660 1052 627 1156 c 5,14,15
 592 1048 592 1048 571 983.5 c 132,-1,16
 550 919 550 919 530.5 859 c 132,-1,17
 511 799 511 799 485.5 725 c 132,-1,18
 460 651 460 651 416 524 c 5,8,-1
EndSplineSet
EndChar

StartChar: thorn
Encoding: 254 254 94
Width: 1264
GlyphClass: 1
Flags: W
LayerCount: 2
Fore
SplineSet
1016 -1 m 1,0,-1
 904 324 l 1,1,-1
 626 324 l 1,2,-1
 626 520 l 1,3,-1
 840 520 l 1,4,-1
 630 1157 l 1,5,-1
 626 1157 l 1,6,-1
 415 520 l 1,7,-1
 621 520 l 1,8,-1
 621 324 l 1,9,-1
 351 324 l 1,10,-1
 239 -1 l 1,11,-1
 6 -1 l 1,12,-1
 536 1456 l 1,13,-1
 720 1456 l 1,14,-1
 1250 -1 l 1,15,-1
 1016 -1 l 1,0,-1
EndSplineSet
EndChar

StartChar: idieresis
Encoding: 239 239 95
Width: 1264
GlyphClass: 1
Flags: W
LayerCount: 2
Fore
SplineSet
1016 -1 m 1,0,-1
 904 324 l 1,1,-1
 451 324 l 1,2,-1
 451 520 l 1,3,-1
 840 520 l 1,4,-1
 630 1157 l 1,5,-1
 626 1157 l 1,6,-1
 415 520 l 1,7,-1
 451 520 l 1,8,-1
 451 324 l 1,9,-1
 351 324 l 1,10,-1
 239 -1 l 1,11,-1
 6 -1 l 1,12,-1
 536 1456 l 1,13,-1
 720 1456 l 1,14,-1
 1250 -1 l 1,15,-1
 1016 -1 l 1,0,-1
EndSplineSet
EndChar

StartChar: one
Encoding: 49 49 96
Width: 691
GlyphClass: 1
Flags: W
LayerCount: 2
Fore
SplineSet
344 -4 m 1,0,-1
 344 1235 l 1,1,-1
 136 1083 l 1,2,-1
 136 1305 l 1,3,-1
 344 1456 l 1,4,-1
 554 1456 l 1,5,-1
 554 -4 l 1,6,-1
 344 -4 l 1,0,-1
EndSplineSet
EndChar

StartChar: quotedblleft
Encoding: 8220 8220 97
Width: 682
GlyphClass: 1
Flags: W
LayerCount: 2
Fore
SplineSet
390 1095 m 1,0,-1
 390 1305 l 1,1,-1
 592 1456 l 1,2,-1
 592 1095 l 1,3,-1
 390 1095 l 1,0,-1
72 1095 m 1,4,-1
 72 1305 l 1,5,-1
 274 1456 l 1,6,-1
 274 1095 l 1,7,-1
 72 1095 l 1,4,-1
EndSplineSet
EndChar

StartChar: quotedblbase
Encoding: 8222 8222 98
Width: 661
GlyphClass: 1
Flags: W
LayerCount: 2
Fore
SplineSet
81 -157 m 1,0,-1
 81 203 l 1,1,-1
 283 203 l 1,2,-1
 283 -5 l 1,3,-1
 81 -157 l 1,0,-1
398 -157 m 1,4,-1
 398 203 l 1,5,-1
 601 203 l 1,6,-1
 601 -5 l 1,7,-1
 398 -157 l 1,4,-1
EndSplineSet
EndChar

StartChar: quotedblright
Encoding: 8221 8221 99
Width: 661
GlyphClass: 1
Flags: W
LayerCount: 2
Fore
SplineSet
81 1095 m 1,0,-1
 81 1456 l 1,1,-1
 283 1456 l 1,2,-1
 283 1247 l 1,3,-1
 81 1095 l 1,0,-1
398 1095 m 1,4,-1
 398 1456 l 1,5,-1
 601 1456 l 1,6,-1
 601 1247 l 1,7,-1
 398 1095 l 1,4,-1
EndSplineSet
EndChar

StartChar: quotedbl
Encoding: 34 34 100
Width: 597
GlyphClass: 1
Flags: W
LayerCount: 2
Fore
SplineSet
88 1095 m 1,0,-1
 88 1456 l 1,1,-1
 242 1456 l 1,2,-1
 242 1095 l 1,3,-1
 88 1095 l 1,0,-1
356 1095 m 1,4,-1
 356 1456 l 1,5,-1
 511 1456 l 1,6,-1
 511 1095 l 1,7,-1
 356 1095 l 1,4,-1
EndSplineSet
EndChar

StartChar: quotesinglbase
Encoding: 8218 8218 101
Width: 400
GlyphClass: 1
Flags: W
LayerCount: 2
Fore
SplineSet
102 -157 m 1,0,-1
 102 203 l 1,1,-1
 304 203 l 1,2,-1
 304 -5 l 1,3,-1
 102 -157 l 1,0,-1
EndSplineSet
EndChar

StartChar: quoteleft
Encoding: 8216 8216 102
Width: 400
GlyphClass: 1
Flags: W
LayerCount: 2
Fore
SplineSet
102 1095 m 1,0,-1
 102 1305 l 1,1,-1
 304 1456 l 1,2,-1
 304 1095 l 1,3,-1
 102 1095 l 1,0,-1
EndSplineSet
EndChar

StartChar: quoteright
Encoding: 8217 8217 103
Width: 400
GlyphClass: 1
Flags: W
LayerCount: 2
Fore
SplineSet
102 1095 m 1,0,-1
 102 1456 l 1,1,-1
 304 1456 l 1,2,-1
 304 1247 l 1,3,-1
 102 1095 l 1,0,-1
EndSplineSet
EndChar

StartChar: endash
Encoding: 8211 8211 104
Width: 1114
GlyphClass: 1
Flags: W
LayerCount: 2
Fore
SplineSet
67 465 m 1,0,-1
 67 661 l 1,1,-1
 1061 661 l 1,2,-1
 1061 465 l 1,3,-1
 67 465 l 1,0,-1
EndSplineSet
EndChar

StartChar: emdash
Encoding: 8212 8212 105
Width: 2040
GlyphClass: 1
Flags: W
LayerCount: 2
Fore
SplineSet
46 465 m 1,0,-1
 46 661 l 1,1,-1
 2036 661 l 1,2,-1
 2036 465 l 1,3,-1
 46 465 l 1,0,-1
EndSplineSet
EndChar

StartChar: backslash
Encoding: 92 92 106
Width: 705
GlyphClass: 1
Flags: W
LayerCount: 2
Fore
SplineSet
517 -17 m 1,0,-1
 42 1468 l 1,1,-1
 197 1468 l 1,2,-1
 672 -17 l 1,3,-1
 517 -17 l 1,0,-1
EndSplineSet
EndChar

StartChar: asciicircum
Encoding: 94 94 107
Width: 1110
GlyphClass: 1
Flags: W
LayerCount: 2
Fore
SplineSet
64 576 m 1,0,-1
 496 1456 l 1,1,-1
 627 1456 l 1,2,-1
 1058 576 l 1,3,-1
 891 576 l 1,4,-1
 561 1284 l 1,5,-1
 231 576 l 1,6,-1
 64 576 l 1,0,-1
EndSplineSet
EndChar

StartChar: grave
Encoding: 96 96 108
Width: 501
GlyphClass: 1
Flags: W
LayerCount: 2
Fore
SplineSet
311 1169 m 1,0,-1
 29 1468 l 1,1,-1
 296 1468 l 1,2,-1
 478 1169 l 1,3,-1
 311 1169 l 1,0,-1
EndSplineSet
EndChar

StartChar: acute
Encoding: 180 180 109
Width: 501
GlyphClass: 1
Flags: W
LayerCount: 2
Fore
SplineSet
29 1169 m 1,0,-1
 212 1468 l 1,1,-1
 478 1468 l 1,2,-1
 196 1169 l 1,3,-1
 29 1169 l 1,0,-1
EndSplineSet
EndChar

StartChar: mu
Encoding: 181 181 110
Width: 924
GlyphClass: 1
Flags: W
LayerCount: 2
Fore
SplineSet
75 -426 m 1,0,-1
 75 1035 l 1,1,-1
 278 1035 l 1,2,-1
 278 415 l 2,3,4
 278 310 278 310 335 250 c 0,5,6
 392 191 392 191 479 191 c 256,7,8
 566 191 566 191 622 250 c 0,9,10
 678 310 678 310 678 415 c 2,11,-1
 678 1035 l 1,12,-1
 880 1035 l 1,13,-1
 880 -5 l 1,14,-1
 678 -5 l 1,15,-1
 678 105 l 1,16,-1
 674 105 l 1,17,18
 574 -17 574 -17 413 -17 c 0,19,20
 345 -17 345 -17 278 12 c 1,21,-1
 278 -426 l 1,22,-1
 75 -426 l 1,0,-1
EndSplineSet
EndChar

StartChar: registered
Encoding: 174 174 111
Width: 1618
GlyphClass: 1
Flags: W
LayerCount: 2
Fore
SplineSet
692 1045 m 1,0,-1
 692 799 l 1,1,-1
 791 799 l 1,2,3
 881 795 881 795 946 817 c 0,4,5
 1009 840 1009 840 1013 921 c 1,6,7
 1009 997 1009 997 954 1023 c 0,8,9
 901 1045 901 1045 823 1045 c 2,10,-1
 692 1045 l 1,0,-1
549 312 m 1,11,-1
 549 1179 l 1,12,-1
 867 1179 l 2,13,14
 1155 1182 1155 1182 1155 921 c 0,15,16
 1153 794 1153 794 1094 735 c 1,17,18
 1029 678 1029 678 941 668 c 1,19,-1
 1181 312 l 1,20,-1
 1015 312 l 1,21,-1
 773 664 l 1,22,-1
 692 664 l 1,23,-1
 692 312 l 1,24,-1
 549 312 l 1,11,-1
101 725 m 1,25,26
 105 1039 105 1039 314 1253 c 1,27,28
 515 1465 515 1465 821 1468 c 1,29,30
 1127 1465 1127 1465 1332 1253 c 0,31,32
 1536 1042 1536 1042 1541 725 c 1,33,34
 1536 407 1536 407 1332 202 c 1,35,36
 1129 -12 1129 -12 821 -17 c 1,37,38
 513 -12 513 -12 314 202 c 1,39,40
 105 409 105 409 101 725 c 1,25,26
256 725 m 0,41,42
 257 462 257 462 418 299 c 1,43,44
 574 130 574 130 821 129 c 0,45,46
 1069 130 1069 130 1227 299 c 0,47,48
 1384 462 1384 462 1386 725 c 0,49,50
 1384 993 1384 993 1227 1155 c 0,51,52
 1069 1320 1069 1320 821 1322 c 0,53,54
 574 1320 574 1320 418 1155 c 1,55,56
 257 993 257 993 256 725 c 0,41,42
EndSplineSet
EndChar

StartChar: copyright
Encoding: 169 169 112
Width: 1618
GlyphClass: 1
Flags: W
LayerCount: 2
Fore
SplineSet
1071 596 m 1,0,-1
 1213 596 l 1,1,2
 1147 255 1147 255 853 251 c 0,3,4
 650 252 650 252 535 389 c 1,5,6
 419 518 419 518 419 725 c 0,7,8
 419 940 419 940 532 1068 c 0,9,10
 641 1197 641 1197 847 1200 c 0,11,12
 993 1200 993 1200 1093 1117 c 0,13,14
 1193 1036 1193 1036 1213 865 c 1,15,-1
 1071 865 l 1,16,17
 1056 949 1056 949 996 1001 c 256,18,19
 936 1053 936 1053 849 1053 c 0,20,21
 718 1051 718 1051 647 960 c 0,22,23
 573 866 573 866 573 729 c 0,24,25
 573 597 573 597 650 501 c 1,26,27
 724 399 724 399 853 398 c 0,28,29
 941 398 941 398 1000 454 c 0,30,31
 1057 505 1057 505 1071 596 c 1,0,-1
101 725 m 1,32,33
 105 1041 105 1041 314 1253 c 1,34,35
 515 1465 515 1465 821 1468 c 1,36,37
 1127 1465 1127 1465 1332 1253 c 0,38,39
 1536 1042 1536 1042 1541 725 c 1,40,41
 1536 407 1536 407 1332 202 c 1,42,43
 1129 -12 1129 -12 821 -17 c 1,44,45
 513 -12 513 -12 314 202 c 1,46,47
 105 408 105 408 101 725 c 1,32,33
256 725 m 0,48,49
 257 462 257 462 418 299 c 1,50,51
 574 130 574 130 821 129 c 0,52,53
 1069 130 1069 130 1227 299 c 0,54,55
 1384 462 1384 462 1386 725 c 0,56,57
 1384 993 1384 993 1227 1155 c 0,58,59
 1069 1320 1069 1320 821 1322 c 0,60,61
 574 1320 574 1320 418 1155 c 1,62,63
 257 993 257 993 256 725 c 0,48,49
EndSplineSet
EndChar

StartChar: guillemotleft
Encoding: 171 171 113
Width: 878
GlyphClass: 1
Flags: W
LayerCount: 2
Fore
SplineSet
58 563 m 1,0,-1
 463 977 l 1,1,-1
 463 768 l 1,2,-1
 253 563 l 1,3,-1
 463 357 l 1,4,-1
 463 149 l 1,5,-1
 58 563 l 1,0,-1
432 563 m 1,6,-1
 837 977 l 1,7,-1
 837 768 l 1,8,-1
 627 563 l 1,9,-1
 837 357 l 1,10,-1
 837 149 l 1,11,-1
 432 563 l 1,6,-1
EndSplineSet
EndChar

StartChar: guillemotright
Encoding: 187 187 114
Width: 866
GlyphClass: 1
Flags: W
LayerCount: 2
Fore
SplineSet
420 149 m 1,0,-1
 420 357 l 1,1,-1
 622 563 l 1,2,-1
 420 768 l 1,3,-1
 420 977 l 1,4,-1
 825 563 l 1,5,-1
 420 149 l 1,0,-1
46 149 m 1,6,-1
 46 357 l 1,7,-1
 248 563 l 1,8,-1
 46 768 l 1,9,-1
 46 977 l 1,10,-1
 451 563 l 1,11,-1
 46 149 l 1,6,-1
EndSplineSet
EndChar

StartChar: florin
Encoding: 402 402 115
Width: 1626
GlyphClass: 1
Flags: W
LayerCount: 2
Fore
SplineSet
1549 1235 m 1,0,-1
 1488 1107 l 1,1,2
 1410 1201 1410 1201 1286.5 1261 c 128,-1,3
 1163 1321 1163 1321 1006 1321 c 0,4,5
 809 1321 809 1321 663.5 1206.5 c 128,-1,6
 518 1092 518 1092 470 923 c 1,7,-1
 1402 923 l 1,8,-1
 1339 791 l 1,9,-1
 440 791 l 1,10,11
 436 737 436 737 436 722 c 0,12,13
 436 705 436 705 440 659 c 1,14,-1
 1279 659 l 1,15,-1
 1216 527 l 1,16,-1
 470 527 l 1,17,18
 526 341 526 341 674.5 233 c 128,-1,19
 823 125 823 125 1027 125 c 0,20,21
 1168 125 1168 125 1288.5 181 c 128,-1,22
 1409 237 1409 237 1488 332 c 1,23,-1
 1488 154 l 1,24,25
 1409 91 1409 91 1283.5 42 c 128,-1,26
 1158 -7 1158 -7 1017 -7 c 0,27,28
 765 -7 765 -7 571.5 135.5 c 128,-1,29
 378 278 378 278 321 527 c 1,30,-1
 84 527 l 1,31,-1
 147 659 l 1,32,-1
 296 659 l 1,33,34
 293 686 293 686 293 724 c 0,35,36
 293 764 293 764 296 791 c 1,37,-1
 84 791 l 1,38,-1
 147 923 l 1,39,-1
 321 923 l 1,40,41
 378 1171 378 1171 572.5 1312 c 128,-1,42
 767 1453 767 1453 1027 1453 c 0,43,44
 1176 1453 1176 1453 1320 1394 c 128,-1,45
 1464 1335 1464 1335 1549 1235 c 1,0,-1
EndSplineSet
EndChar

StartChar: OE
Encoding: 338 338 116
Width: 1640
GlyphClass: 1
Flags: W
LayerCount: 2
Fore
SplineSet
838 1448 m 0,0,1
 1132 1448 1132 1448 1348 1236 c 0,2,3
 1562 1022 1562 1022 1562 725 c 0,4,5
 1562 430 1562 430 1351 215 c 0,6,7
 1139 1 1139 1 838 1 c 0,8,9
 543 1 543 1 328 213 c 0,10,11
 114 427 114 427 114 725 c 0,12,13
 114 1020 114 1020 327 1235 c 0,14,15
 538 1448 538 1448 838 1448 c 0,0,1
838 96 m 0,16,17
 1099 96 1099 96 1283 280 c 256,18,19
 1467 464 1467 464 1467 725 c 0,20,21
 1467 985 1467 985 1283 1169 c 0,22,23
 1098 1354 1098 1354 838 1354 c 0,24,25
 579 1354 579 1354 394 1169 c 256,26,27
 209 984 209 984 209 725 c 0,28,29
 209 465 209 465 394 280 c 0,30,31
 578 96 578 96 838 96 c 0,16,17
587 1157 m 1,32,-1
 1129 1157 l 1,33,-1
 1129 1118 l 1,34,-1
 711 297 l 1,35,-1
 596 358 l 1,36,-1
 940 1033 l 1,37,-1
 711 1033 l 1,38,-1
 711 960 l 1,39,-1
 587 960 l 1,40,-1
 587 1157 l 1,32,-1
EndSplineSet
EndChar

StartChar: guilsinglleft
Encoding: 8249 8249 117
Width: 1640
GlyphClass: 1
Flags: W
LayerCount: 2
Fore
SplineSet
838 1448 m 0,0,1
 1132 1448 1132 1448 1348 1236 c 0,2,3
 1562 1022 1562 1022 1562 725 c 0,4,5
 1562 430 1562 430 1351 215 c 0,6,7
 1139 1 1139 1 838 1 c 0,8,9
 543 1 543 1 328 213 c 0,10,11
 114 427 114 427 114 725 c 0,12,13
 114 1020 114 1020 327 1235 c 0,14,15
 538 1448 538 1448 838 1448 c 0,0,1
838 96 m 0,16,17
 1099 96 1099 96 1283 280 c 256,18,19
 1467 464 1467 464 1467 725 c 0,20,21
 1467 985 1467 985 1283 1169 c 0,22,23
 1098 1354 1098 1354 838 1354 c 0,24,25
 579 1354 579 1354 394 1169 c 256,26,27
 209 984 209 984 209 725 c 0,28,29
 209 465 209 465 394 280 c 0,30,31
 578 96 578 96 838 96 c 0,16,17
996 1123 m 1,32,-1
 770 802 l 1,33,34
 783 805 783 805 795 807 c 128,-1,35
 807 809 807 809 818 812 c 0,36,37
 840 815 840 815 863 815 c 0,38,39
 971 815 971 815 1037 746 c 0,40,41
 1103 678 1103 678 1103 567 c 0,42,43
 1103 444 1103 444 1022 371 c 0,44,45
 940 297 940 297 815 297 c 0,46,47
 692 297 692 297 624 376 c 0,48,49
 553 453 553 453 553 579 c 0,50,51
 553 614 553 614 558 648 c 0,52,53
 562 679 562 679 576 709 c 0,54,55
 586 735 586 735 605 770 c 0,56,57
 627 809 627 809 645 833 c 2,58,-1
 881 1172 l 1,59,-1
 996 1123 l 1,32,-1
829 421 m 0,60,61
 888 421 888 421 923 463 c 0,62,63
 959 500 959 500 959 565 c 0,64,65
 959 627 959 627 925 669 c 0,66,67
 890 711 890 711 829 711 c 0,68,69
 764 711 764 711 733 669 c 1,70,71
 697 628 697 628 697 565 c 256,72,73
 697 502 697 502 733 462 c 0,74,75
 769 421 769 421 829 421 c 0,60,61
EndSplineSet
EndChar

StartChar: Scaron
Encoding: 352 352 118
Width: 1640
GlyphClass: 1
Flags: W
LayerCount: 2
Fore
SplineSet
838 1448 m 0,0,1
 1132 1448 1132 1448 1348 1236 c 0,2,3
 1562 1022 1562 1022 1562 725 c 0,4,5
 1562 430 1562 430 1351 215 c 0,6,7
 1139 1 1139 1 838 1 c 0,8,9
 543 1 543 1 328 213 c 0,10,11
 114 427 114 427 114 725 c 0,12,13
 114 1020 114 1020 327 1235 c 0,14,15
 538 1448 538 1448 838 1448 c 0,0,1
838 96 m 0,16,17
 1099 96 1099 96 1283 280 c 256,18,19
 1467 464 1467 464 1467 725 c 0,20,21
 1467 985 1467 985 1283 1169 c 0,22,23
 1098 1354 1098 1354 838 1354 c 0,24,25
 579 1354 579 1354 394 1169 c 256,26,27
 209 984 209 984 209 725 c 0,28,29
 209 465 209 465 394 280 c 0,30,31
 578 96 578 96 838 96 c 0,16,17
641 520 m 1,32,33
 685 463 685 463 722 443 c 0,34,35
 758 421 758 421 800 421 c 0,36,37
 869 421 869 421 916 469 c 1,38,39
 961 521 961 521 961 591 c 0,40,41
 961 663 961 663 914 714 c 0,42,43
 867 763 867 763 792 763 c 0,44,45
 745 763 745 763 713 746 c 0,46,47
 684 735 684 735 634 697 c 1,48,-1
 594 697 l 1,49,-1
 696 1157 l 1,50,-1
 1058 1157 l 1,51,-1
 1058 1033 l 1,52,-1
 790 1033 l 1,53,-1
 751 855 l 1,54,55
 797 867 797 867 846 867 c 0,56,57
 958 867 958 867 1026 791 c 0,58,59
 1095 719 1095 719 1095 602 c 0,60,61
 1095 468 1095 468 1012 382 c 0,62,63
 928 297 928 297 792 297 c 0,64,65
 715 297 715 297 662 328 c 0,66,67
 606 361 606 361 552 426 c 1,68,-1
 641 520 l 1,32,33
EndSplineSet
EndChar

StartChar: perthousand
Encoding: 8240 8240 119
Width: 1640
GlyphClass: 1
Flags: W
LayerCount: 2
Fore
SplineSet
838 1448 m 0,0,1
 1132 1448 1132 1448 1348 1236 c 0,2,3
 1562 1022 1562 1022 1562 725 c 0,4,5
 1562 430 1562 430 1351 215 c 0,6,7
 1139 1 1139 1 838 1 c 0,8,9
 543 1 543 1 328 213 c 0,10,11
 114 427 114 427 114 725 c 0,12,13
 114 1020 114 1020 327 1235 c 0,14,15
 538 1448 538 1448 838 1448 c 0,0,1
838 96 m 0,16,17
 1099 96 1099 96 1283 280 c 256,18,19
 1467 464 1467 464 1467 725 c 0,20,21
 1467 985 1467 985 1283 1169 c 0,22,23
 1098 1354 1098 1354 838 1354 c 0,24,25
 579 1354 579 1354 394 1169 c 256,26,27
 209 984 209 984 209 725 c 0,28,29
 209 465 209 465 394 280 c 0,30,31
 578 96 578 96 838 96 c 0,16,17
827 495 m 1,32,-1
 466 495 l 1,33,-1
 466 540 l 1,34,-1
 889 1172 l 1,35,-1
 951 1172 l 1,36,-1
 951 599 l 1,37,-1
 1061 599 l 1,38,-1
 1061 495 l 1,39,-1
 951 495 l 1,40,-1
 951 313 l 1,41,-1
 827 313 l 1,42,-1
 827 495 l 1,32,-1
827 892 m 1,43,-1
 633 599 l 1,44,-1
 827 599 l 1,45,-1
 827 892 l 1,43,-1
EndSplineSet
EndChar

StartChar: circumflex
Encoding: 710 710 120
Width: 1640
GlyphClass: 1
Flags: W
LayerCount: 2
Fore
SplineSet
838 1448 m 0,0,1
 1132 1448 1132 1448 1348 1236 c 0,2,3
 1562 1022 1562 1022 1562 725 c 0,4,5
 1562 430 1562 430 1351 215 c 0,6,7
 1139 1 1139 1 838 1 c 0,8,9
 543 1 543 1 328 213 c 0,10,11
 114 427 114 427 114 725 c 0,12,13
 114 1020 114 1020 327 1235 c 0,14,15
 538 1448 538 1448 838 1448 c 0,0,1
838 96 m 0,16,17
 1099 96 1099 96 1283 280 c 256,18,19
 1467 464 1467 464 1467 725 c 0,20,21
 1467 985 1467 985 1283 1169 c 0,22,23
 1098 1354 1098 1354 838 1354 c 0,24,25
 579 1354 579 1354 394 1169 c 256,26,27
 209 984 209 984 209 725 c 0,28,29
 209 465 209 465 394 280 c 0,30,31
 578 96 578 96 838 96 c 0,16,17
761 797 m 1,32,33
 836 797 836 797 888 828 c 0,34,35
 937 857 937 857 937 928 c 0,36,37
 937 976 937 976 902 1013 c 0,38,39
 868 1048 868 1048 813 1048 c 256,40,41
 758 1048 758 1048 728 1015 c 0,42,43
 699 981 699 981 699 928 c 1,44,-1
 575 928 l 1,45,46
 575 1038 575 1038 640 1106 c 1,47,48
 709 1172 709 1172 829 1172 c 0,49,50
 932 1172 932 1172 996 1108 c 0,51,52
 1061 1043 1061 1043 1061 943 c 0,53,54
 1061 875 1061 875 1030 830 c 0,55,56
 998 783 998 783 942 751 c 1,57,58
 1081 691 1081 691 1081 545 c 0,59,60
 1081 430 1081 430 1007 364 c 0,61,62
 932 297 932 297 817 297 c 0,63,64
 698 297 698 297 632 356 c 0,65,66
 565 415 565 415 565 528 c 1,67,-1
 689 528 l 1,68,69
 689 498 689 498 696 480 c 0,70,71
 703 460 703 460 722 443 c 0,72,73
 762 410 762 410 812 410 c 0,74,75
 872 410 872 410 909 445 c 0,76,77
 948 479 948 479 948 539 c 0,78,79
 948 616 948 616 895 650 c 0,80,81
 841 683 841 683 761 683 c 1,82,-1
 761 797 l 1,32,33
EndSplineSet
EndChar

StartChar: daggerdbl
Encoding: 8225 8225 121
Width: 1640
GlyphClass: 1
Flags: W
LayerCount: 2
Fore
SplineSet
838 1448 m 0,0,1
 1132 1448 1132 1448 1348 1236 c 0,2,3
 1562 1022 1562 1022 1562 725 c 0,4,5
 1562 430 1562 430 1351 215 c 0,6,7
 1139 1 1139 1 838 1 c 0,8,9
 543 1 543 1 328 213 c 0,10,11
 114 427 114 427 114 725 c 0,12,13
 114 1020 114 1020 327 1235 c 0,14,15
 538 1448 538 1448 838 1448 c 0,0,1
838 96 m 0,16,17
 1099 96 1099 96 1283 280 c 256,18,19
 1467 464 1467 464 1467 725 c 0,20,21
 1467 985 1467 985 1283 1169 c 0,22,23
 1098 1354 1098 1354 838 1354 c 0,24,25
 579 1354 579 1354 394 1169 c 256,26,27
 209 984 209 984 209 725 c 0,28,29
 209 465 209 465 394 280 c 0,30,31
 578 96 578 96 838 96 c 0,16,17
1091 436 m 1,32,-1
 1091 313 l 1,33,-1
 559 313 l 1,34,-1
 559 345 l 1,35,-1
 861 705 l 2,36,37
 909 759 909 759 933 808 c 0,38,39
 956 860 956 860 956 909 c 0,40,41
 956 968 956 968 922 1008 c 0,42,43
 887 1048 887 1048 827 1048 c 0,44,45
 755 1048 755 1048 719 1004 c 1,46,47
 688 956 688 956 688 883 c 1,48,-1
 564 883 l 1,49,50
 564 1020 564 1020 632 1096 c 0,51,52
 699 1172 699 1172 829 1172 c 0,53,54
 948 1172 948 1172 1016 1104 c 1,55,56
 1091 1038 1091 1038 1091 926 c 0,57,58
 1091 776 1091 776 936 596 c 2,59,-1
 797 436 l 1,60,-1
 1091 436 l 1,32,-1
EndSplineSet
EndChar

StartChar: dagger
Encoding: 8224 8224 122
Width: 1640
GlyphClass: 1
Flags: W
LayerCount: 2
Fore
SplineSet
838 1448 m 0,0,1
 1132 1448 1132 1448 1348 1236 c 0,2,3
 1562 1022 1562 1022 1562 725 c 0,4,5
 1562 430 1562 430 1351 215 c 0,6,7
 1139 1 1139 1 838 1 c 0,8,9
 543 1 543 1 328 213 c 0,10,11
 114 427 114 427 114 725 c 0,12,13
 114 1020 114 1020 327 1235 c 0,14,15
 538 1448 538 1448 838 1448 c 0,0,1
838 96 m 0,16,17
 1099 96 1099 96 1283 280 c 256,18,19
 1467 464 1467 464 1467 725 c 0,20,21
 1467 985 1467 985 1283 1169 c 0,22,23
 1098 1354 1098 1354 838 1354 c 0,24,25
 579 1354 579 1354 394 1169 c 256,26,27
 209 984 209 984 209 725 c 0,28,29
 209 465 209 465 394 280 c 0,30,31
 578 96 578 96 838 96 c 0,16,17
781 1033 m 1,32,-1
 613 1033 l 1,33,-1
 691 1157 l 1,34,-1
 905 1157 l 1,35,-1
 905 313 l 1,36,-1
 781 313 l 1,37,-1
 781 1033 l 1,32,-1
EndSplineSet
EndChar

StartChar: section
Encoding: 167 167 123
Width: 872
GlyphClass: 1
Flags: W
LayerCount: 2
Fore
SplineSet
95 -25 m 1,0,-1
 273 -25 l 1,1,2
 280 -103 280 -103 324 -150 c 0,3,4
 366 -200 366 -200 446 -202 c 0,5,6
 516 -202 516 -202 559 -159 c 0,7,8
 603 -119 603 -119 603 -42 c 0,9,10
 604 32 604 32 567 69 c 0,11,12
 526 105 526 105 402 142 c 1,13,-1
 327 169 l 2,14,15
 164 224 164 224 109 310 c 0,16,17
 52 392 52 392 55 547 c 1,18,19
 52 681 52 681 93 762 c 0,20,21
 132 841 132 841 255 892 c 1,22,23
 115 975 115 975 120 1136 c 0,24,25
 121 1282 121 1282 215 1376 c 0,26,27
 305 1464 305 1464 441 1466 c 0,28,29
 581 1466 581 1466 674 1382 c 0,30,31
 769 1293 769 1293 771 1113 c 1,32,-1
 593 1113 l 1,33,34
 593 1190 593 1190 555 1236 c 256,35,36
 517 1282 517 1282 441 1282 c 1,37,38
 367 1278 367 1278 334 1240 c 0,39,40
 298 1201 298 1201 298 1152 c 0,41,42
 298 1086 298 1086 344 1056 c 0,43,44
 394 1018 394 1018 504 984 c 1,45,46
 670 939 670 939 750 855 c 256,47,48
 830 771 830 771 830 571 c 0,49,50
 831 449 831 449 798 374 c 1,51,52
 759 296 759 296 635 233 c 1,53,54
 727 195 727 195 762 126 c 0,55,56
 794 55 794 55 794 -30 c 0,57,58
 790 -200 790 -200 688 -298 c 0,59,60
 585 -395 585 -395 431 -399 c 1,61,62
 294 -395 294 -395 197 -296 c 1,63,64
 96 -199 96 -199 95 -25 c 1,0,-1
442 329 m 0,65,66
 557 333 557 333 593 404 c 1,67,68
 629 457 629 457 627 563 c 0,69,70
 627 639 627 639 619 670 c 0,71,72
 608 706 608 706 585 731 c 1,73,74
 566 759 566 759 531 777 c 0,75,76
 493 794 493 794 442 794 c 0,77,78
 339 789 339 789 299 731 c 1,79,80
 275 704 275 704 267 670 c 0,81,82
 257 631 257 631 257 563 c 0,83,84
 255 455 255 455 292 404 c 0,85,86
 308 377 308 377 350 353 c 0,87,88
 386 329 386 329 442 329 c 0,65,66
EndSplineSet
EndChar

StartChar: divide
Encoding: 247 247 124
Width: 1139
GlyphClass: 1
Flags: W
LayerCount: 2
Fore
SplineSet
78 434 m 1,0,-1
 78 594 l 1,1,-1
 1085 594 l 1,2,-1
 1085 434 l 1,3,-1
 78 434 l 1,0,-1
448 939 m 0,4,5
 448 997 448 997 488 1037 c 0,6,7
 525 1076 525 1076 581 1076 c 0,8,9
 639 1076 639 1076 677 1037 c 0,10,11
 715 997 715 997 715 939 c 0,12,13
 715 882 715 882 677 843 c 0,14,15
 640 802 640 802 581 802 c 0,16,17
 524 802 524 802 488 843 c 0,18,19
 448 883 448 883 448 939 c 0,4,5
448 89 m 0,20,21
 448 148 448 148 488 187 c 0,22,23
 525 226 525 226 581 226 c 0,24,25
 639 226 639 226 677 187 c 0,26,27
 715 149 715 149 715 89 c 0,28,29
 715 31 715 31 677 -7 c 0,30,31
 639 -46 639 -46 581 -48 c 0,32,33
 525 -46 525 -46 488 -7 c 0,34,35
 448 31 448 31 448 89 c 0,20,21
EndSplineSet
EndChar

StartChar: onequarter
Encoding: 188 188 125
Width: 1422
GlyphClass: 1
Flags: W
LayerCount: 2
Fore
SplineSet
178 -40 m 1,0,-1
 1035 1491 l 1,1,-1
 1167 1491 l 1,2,-1
 309 -40 l 1,3,-1
 178 -40 l 1,0,-1
732 122 m 1,4,-1
 732 268 l 1,5,-1
 1041 866 l 1,6,-1
 1208 866 l 1,7,-1
 906 269 l 1,8,-1
 1123 269 l 1,9,-1
 1123 496 l 1,10,-1
 1289 496 l 1,11,-1
 1289 269 l 1,12,-1
 1355 269 l 1,13,-1
 1355 122 l 1,14,-1
 1289 122 l 1,15,-1
 1289 -5 l 1,16,-1
 1123 -5 l 1,17,-1
 1123 122 l 1,18,-1
 732 122 l 1,4,-1
217 584 m 1,19,-1
 217 1288 l 1,20,-1
 86 1197 l 1,21,-1
 86 1370 l 1,22,-1
 217 1460 l 1,23,-1
 384 1460 l 1,24,-1
 384 584 l 1,25,-1
 217 584 l 1,19,-1
EndSplineSet
EndChar

StartChar: onehalf
Encoding: 189 189 126
Width: 1435
GlyphClass: 1
Flags: W
LayerCount: 2
Fore
SplineSet
128 -40 m 1,0,-1
 985 1491 l 1,1,-1
 1124 1491 l 1,2,-1
 261 -40 l 1,3,-1
 128 -40 l 1,0,-1
794 -5 m 1,4,-1
 794 141 l 1,5,-1
 1156 527 l 2,6,7
 1201 570 1201 570 1201 626 c 0,8,9
 1201 674 1201 674 1171 704 c 0,10,11
 1140 732 1140 732 1084 732 c 0,12,13
 976 730 976 730 967 604 c 1,14,-1
 800 604 l 1,15,16
 800 728 800 728 882 805 c 0,17,18
 956 877 956 877 1078 879 c 0,19,20
 1206 877 1206 877 1288 807 c 1,21,22
 1365 732 1365 732 1367 626 c 0,23,24
 1367 583 1367 583 1355 544 c 0,25,26
 1339 503 1339 503 1301 462 c 2,27,-1
 996 141 l 1,28,-1
 1367 141 l 1,29,-1
 1367 -5 l 1,30,-1
 794 -5 l 1,4,-1
217 584 m 1,31,-1
 217 1288 l 1,32,-1
 86 1197 l 1,33,-1
 86 1370 l 1,34,-1
 217 1460 l 1,35,-1
 384 1460 l 1,36,-1
 384 584 l 1,37,-1
 217 584 l 1,31,-1
EndSplineSet
EndChar

StartChar: questiondown
Encoding: 191 191 127
Width: 869
GlyphClass: 1
Flags: W
LayerCount: 2
Fore
SplineSet
355 557 m 2,0,-1
 355 675 l 1,1,-1
 558 675 l 1,2,-1
 558 541 l 2,3,4
 558 486 558 486 550 438 c 1,5,6
 538 391 538 391 505 343 c 2,7,-1
 322 88 l 2,8,9
 270 17 270 17 270 -47 c 0,10,11
 271 -130 271 -130 328 -178 c 0,12,13
 381 -227 381 -227 441 -229 c 0,14,15
 519 -229 519 -229 572 -178 c 0,16,17
 623 -126 623 -126 625 -5 c 1,18,-1
 828 -5 l 1,19,-1
 828 -46 l 2,20,21
 826 -212 826 -212 716 -323 c 0,22,23
 608 -436 608 -436 452 -438 c 0,24,25
 302 -436 302 -436 187 -330 c 0,26,27
 70 -223 70 -223 68 -44 c 0,28,29
 68 84 68 84 134 171 c 2,30,-1
 320 428 l 2,31,32
 357 481 357 481 355 557 c 2,0,-1
355 827 m 1,33,-1
 355 1035 l 1,34,-1
 558 1035 l 1,35,-1
 558 827 l 1,36,-1
 355 827 l 1,33,-1
EndSplineSet
EndChar

StartChar: paragraph
Encoding: 182 182 128
Width: 988
GlyphClass: 1
Flags: W
LayerCount: 2
Fore
SplineSet
478 -384 m 1,0,-1
 478 681 l 1,1,2
 291 684 291 684 179 795 c 1,3,4
 61 898 61 898 60 1063 c 0,5,6
 67 1457 67 1457 519 1456 c 2,7,-1
 941 1456 l 1,8,-1
 941 -384 l 1,9,-1
 787 -384 l 1,10,-1
 787 1322 l 1,11,-1
 632 1322 l 1,12,-1
 632 -384 l 1,13,-1
 478 -384 l 1,0,-1
EndSplineSet
EndChar

StartChar: plusminus
Encoding: 177 177 129
Width: 1116
GlyphClass: 1
Flags: W
LayerCount: 2
Fore
SplineSet
484 278 m 1,0,-1
 484 576 l 1,1,-1
 58 576 l 1,2,-1
 58 736 l 1,3,-1
 484 736 l 1,4,-1
 484 1033 l 1,5,-1
 638 1033 l 1,6,-1
 638 736 l 1,7,-1
 1063 736 l 1,8,-1
 1063 576 l 1,9,-1
 638 576 l 1,10,-1
 638 278 l 1,11,-1
 484 278 l 1,0,-1
58 -5 m 1,12,-1
 58 155 l 1,13,-1
 1063 155 l 1,14,-1
 1063 -5 l 1,15,-1
 58 -5 l 1,12,-1
EndSplineSet
EndChar

StartChar: periodcentered
Encoding: 183 183 130
AltUni2: 002219.ffffffff.0 002219.ffffffff.0
Width: 310
GlyphClass: 1
Flags: W
LayerCount: 2
Fore
SplineSet
29 594 m 0,0,1
 29 653 29 653 68 692 c 0,2,3
 105 731 105 731 162 731 c 256,4,5
 219 731 219 731 257 692 c 0,6,7
 296 653 296 653 296 594 c 0,8,9
 296 537 296 537 257 498 c 0,10,11
 220 457 220 457 162 457 c 256,12,13
 104 457 104 457 68 498 c 0,14,15
 29 537 29 537 29 594 c 0,0,1
EndSplineSet
EndChar

StartChar: uni00B3
Encoding: 179 179 131
Width: 666
GlyphClass: 1
Flags: W
LayerCount: 2
Fore
SplineSet
250 969 m 1,0,-1
 250 1103 l 1,1,-1
 314 1103 l 2,2,3
 379 1103 379 1103 421 1137 c 0,4,5
 458 1163 458 1163 458 1216 c 0,6,7
 458 1263 458 1263 427 1293 c 0,8,9
 391 1322 391 1322 341 1322 c 0,10,11
 297 1322 297 1322 258 1297 c 0,12,13
 222 1271 222 1271 207 1214 c 1,14,-1
 40 1214 l 1,15,16
 52 1328 52 1328 127 1397 c 0,17,18
 201 1466 201 1466 322 1468 c 0,19,20
 469 1466 469 1466 548 1393 c 0,21,22
 624 1318 624 1318 624 1219 c 0,23,24
 624 1167 624 1167 605 1121 c 1,25,26
 580 1074 580 1074 520 1037 c 1,27,28
 581 1003 581 1003 611 951 c 1,29,30
 635 901 635 901 635 845 c 0,31,32
 633 723 633 723 552 649 c 0,33,34
 471 576 471 576 327 576 c 0,35,36
 85 573 85 573 36 821 c 1,37,-1
 203 821 l 1,38,39
 233 725 233 725 338 722 c 0,40,41
 396 722 396 722 433 756 c 0,42,43
 467 786 467 786 469 841 c 0,44,45
 467 899 467 899 428 936 c 1,46,47
 387 969 387 969 326 969 c 2,48,-1
 250 969 l 1,0,-1
EndSplineSet
EndChar

StartChar: uni00B2
Encoding: 178 178 132
Width: 639
GlyphClass: 1
Flags: W
LayerCount: 2
Fore
SplineSet
36 584 m 1,0,-1
 36 730 l 1,1,-1
 397 1118 l 1,2,3
 443 1160 443 1160 443 1216 c 0,4,5
 443 1264 443 1264 413 1293 c 0,6,7
 380 1322 380 1322 327 1322 c 0,8,9
 218 1320 218 1320 208 1194 c 1,10,-1
 42 1194 l 1,11,12
 42 1320 42 1320 123 1395 c 0,13,14
 197 1466 197 1466 320 1468 c 0,15,16
 448 1466 448 1466 529 1397 c 1,17,18
 607 1321 607 1321 609 1215 c 0,19,20
 609 1171 609 1171 597 1134 c 0,21,22
 580 1091 580 1091 544 1052 c 2,23,-1
 239 730 l 1,24,-1
 609 730 l 1,25,-1
 609 584 l 1,26,-1
 36 584 l 1,0,-1
EndSplineSet
EndChar

StartChar: degree
Encoding: 176 176 133
Width: 635
GlyphClass: 1
Flags: W
LayerCount: 2
Fore
SplineSet
37 1175 m 0,0,1
 38 1300 38 1300 120 1384 c 0,2,3
 202 1466 202 1466 321 1468 c 0,4,5
 444 1466 444 1466 524 1384 c 0,6,7
 603 1301 603 1301 605 1176 c 0,8,9
 603 1052 603 1052 524 968 c 0,10,11
 444 883 444 883 321 882 c 0,12,13
 202 883 202 883 120 968 c 0,14,15
 38 1052 38 1052 37 1175 c 0,0,1
137 1175 m 0,16,17
 137 1095 137 1095 194 1043 c 1,18,19
 243 986 243 986 321 986 c 0,20,21
 400 986 400 986 453 1043 c 0,22,23
 503 1096 503 1096 505 1175 c 0,24,25
 503 1255 503 1255 453 1311 c 1,26,27
 399 1362 399 1362 321 1364 c 0,28,29
 243 1362 243 1362 194 1311 c 0,30,31
 137 1257 137 1257 137 1175 c 0,16,17
EndSplineSet
EndChar

StartChar: logicalnot
Encoding: 172 172 134
Width: 1138
GlyphClass: 1
Flags: W
LayerCount: 2
Fore
SplineSet
929 216 m 1,0,-1
 929 639 l 1,1,-1
 78 639 l 1,2,-1
 78 800 l 1,3,-1
 1084 800 l 1,4,-1
 1084 216 l 1,5,-1
 929 216 l 1,0,-1
EndSplineSet
EndChar

StartChar: uni00AD
Encoding: 173 173 135
Width: 700
GlyphClass: 1
Flags: W
LayerCount: 2
Fore
SplineSet
70 459 m 1,0,-1
 70 667 l 1,1,-1
 667 667 l 1,2,-1
 667 459 l 1,3,-1
 70 459 l 1,0,-1
EndSplineSet
EndChar

StartChar: cedilla
Encoding: 184 184 136
Width: 505
GlyphClass: 1
Flags: W
LayerCount: 2
Fore
SplineSet
235 -4 m 1,0,-1
 336 -4 l 1,1,-1
 248 -127 l 1,2,-1
 252 -127 l 1,3,4
 276 -119 276 -119 307 -119 c 0,5,6
 389 -119 389 -119 436 -164 c 0,7,8
 481 -209 481 -209 481 -274 c 0,9,10
 479 -373 479 -373 409 -419 c 0,11,12
 339 -468 339 -468 237 -468 c 0,13,14
 141 -466 141 -466 36 -419 c 1,15,-1
 71 -333 l 1,16,17
 142 -362 142 -362 211 -364 c 0,18,19
 322 -364 322 -364 327 -277 c 0,20,21
 327 -236 327 -236 299 -220 c 0,22,23
 272 -201 272 -201 229 -201 c 0,24,25
 189 -199 189 -199 151 -223 c 1,26,-1
 105 -184 l 1,27,-1
 235 -4 l 1,0,-1
EndSplineSet
EndChar

StartChar: macron
Encoding: 175 175 137
Width: 642
GlyphClass: 1
Flags: W
LayerCount: 2
Fore
SplineSet
40 1241 m 1,0,-1
 40 1375 l 1,1,-1
 612 1375 l 1,2,-1
 612 1241 l 1,3,-1
 40 1241 l 1,0,-1
EndSplineSet
EndChar

StartChar: uni00B9
Encoding: 185 185 138
Width: 441
GlyphClass: 1
Flags: W
LayerCount: 2
Fore
SplineSet
197 584 m 1,0,-1
 197 1288 l 1,1,-1
 66 1197 l 1,2,-1
 66 1370 l 1,3,-1
 197 1460 l 1,4,-1
 363 1460 l 1,5,-1
 363 584 l 1,6,-1
 197 584 l 1,0,-1
EndSplineSet
EndChar

StartChar: ordmasculine
Encoding: 186 186 139
Width: 652
GlyphClass: 1
Flags: W
LayerCount: 2
Fore
SplineSet
35 1148 m 256,0,1
 35 1238 35 1238 49 1290 c 0,2,3
 60 1339 60 1339 99 1379 c 0,4,5
 183 1468 183 1468 329 1468 c 0,6,7
 472 1468 472 1468 558 1378 c 0,8,9
 595 1337 595 1337 610 1290 c 1,10,11
 621 1238 621 1238 621 1149 c 0,12,13
 621 1058 621 1058 610 1010 c 0,14,15
 595 961 595 961 557 920 c 0,16,17
 471 829 471 829 327 829 c 0,18,19
 182 829 182 829 99 920 c 0,20,21
 61 957 61 957 49 1009 c 0,22,23
 35 1058 35 1058 35 1148 c 256,0,1
190 1148 m 0,24,25
 185 1052 185 1052 220 1012 c 1,26,27
 255 963 255 963 328 963 c 256,28,29
 401 963 401 963 437 1012 c 0,30,31
 457 1040 457 1040 463 1068 c 0,32,33
 467 1092 467 1092 467 1148 c 0,34,35
 468 1244 468 1244 437 1285 c 0,36,37
 400 1332 400 1332 330 1334 c 0,38,39
 256 1332 256 1332 220 1285 c 0,40,41
 199 1261 199 1261 197 1233 c 1,42,43
 190 1206 190 1206 190 1148 c 0,24,25
EndSplineSet
EndChar

StartChar: multiply
Encoding: 215 215 140
Width: 1032
GlyphClass: 1
Flags: W
LayerCount: 2
Fore
SplineSet
57 151 m 1,0,-1
 413 514 l 1,1,-1
 57 880 l 1,2,-1
 167 994 l 1,3,-1
 520 627 l 1,4,-1
 872 994 l 1,5,-1
 983 880 l 1,6,-1
 615 514 l 1,7,-1
 983 151 l 1,8,-1
 872 37 l 1,9,-1
 520 406 l 1,10,-1
 167 37 l 1,11,-1
 57 151 l 1,0,-1
EndSplineSet
EndChar

StartChar: Egrave
Encoding: 200 200 141
Width: 1634
GlyphClass: 1
Flags: W
LayerCount: 2
Fore
SplineSet
827 1456 m 0,0,1
 1125 1456 1125 1456 1341 1242 c 0,2,3
 1557 1027 1557 1027 1557 727 c 256,4,5
 1557 427 1557 427 1344 213 c 0,6,7
 1133 -2 1133 -2 827 -2 c 0,8,9
 527 -2 527 -2 313 211 c 0,10,11
 98 426 98 426 98 727 c 0,12,13
 98 1025 98 1025 312 1241 c 0,14,15
 525 1456 525 1456 827 1456 c 0,0,1
827 92 m 0,16,17
 1090 92 1090 92 1275 278 c 0,18,19
 1461 462 1461 462 1461 727 c 0,20,21
 1461 990 1461 990 1275 1175 c 0,22,23
 1090 1361 1090 1361 827 1361 c 0,24,25
 565 1361 565 1361 379 1175 c 256,26,27
 193 989 193 989 193 727 c 0,28,29
 193 464 193 464 379 278 c 256,30,31
 565 92 565 92 827 92 c 0,16,17
749 1184 m 1,32,-1
 906 1184 l 1,33,-1
 1263 325 l 1,34,-1
 1097 325 l 1,35,-1
 1024 508 l 1,36,-1
 632 508 l 1,37,-1
 560 325 l 1,38,-1
 393 325 l 1,39,-1
 749 1184 l 1,32,-1
827 1009 m 1,40,-1
 680 633 l 1,41,-1
 974 633 l 1,42,-1
 827 1009 l 1,40,-1
EndSplineSet
EndChar

StartChar: Eacute
Encoding: 201 201 142
Width: 1634
GlyphClass: 1
Flags: W
LayerCount: 2
Fore
SplineSet
827 1456 m 0,0,1
 1125 1456 1125 1456 1341 1242 c 0,2,3
 1557 1027 1557 1027 1557 727 c 256,4,5
 1557 427 1557 427 1344 213 c 0,6,7
 1133 -2 1133 -2 827 -2 c 0,8,9
 527 -2 527 -2 313 211 c 0,10,11
 98 426 98 426 98 727 c 0,12,13
 98 1025 98 1025 312 1241 c 0,14,15
 525 1456 525 1456 827 1456 c 0,0,1
827 92 m 0,16,17
 1090 92 1090 92 1275 278 c 0,18,19
 1461 462 1461 462 1461 727 c 0,20,21
 1461 990 1461 990 1275 1175 c 0,22,23
 1090 1361 1090 1361 827 1361 c 0,24,25
 565 1361 565 1361 379 1175 c 256,26,27
 193 989 193 989 193 727 c 0,28,29
 193 464 193 464 379 278 c 256,30,31
 565 92 565 92 827 92 c 0,16,17
499 1161 m 1,32,-1
 910 1161 l 2,33,34
 1027 1161 1027 1161 1087 1099 c 256,35,36
 1147 1037 1147 1037 1147 959 c 0,37,38
 1147 880 1147 880 1119 842 c 0,39,40
 1088 802 1088 802 1015 770 c 1,41,42
 1095 770 1095 770 1145 712 c 0,43,44
 1195 652 1195 652 1195 567 c 0,45,46
 1195 468 1195 468 1132 396 c 0,47,48
 1068 325 1068 325 909 325 c 2,49,-1
 499 325 l 1,50,-1
 499 1161 l 1,32,-1
656 461 m 1,51,-1
 899 461 l 2,52,53
 1040 461 1040 461 1040 577 c 0,54,55
 1040 634 1040 634 999 666 c 1,56,57
 955 694 955 694 893 694 c 2,58,-1
 656 694 l 1,59,-1
 656 461 l 1,51,-1
656 820 m 1,60,-1
 852 820 l 2,61,62
 919 820 919 820 955 846 c 0,63,64
 991 871 991 871 991 930 c 0,65,66
 991 980 991 980 962 1005 c 1,67,68
 927 1027 927 1027 852 1027 c 2,69,-1
 656 1027 l 1,70,-1
 656 820 l 1,60,-1
EndSplineSet
EndChar

StartChar: Ecircumflex
Encoding: 202 202 143
Width: 1634
GlyphClass: 1
Flags: W
LayerCount: 2
Fore
SplineSet
827 1456 m 0,0,1
 1125 1456 1125 1456 1341 1242 c 0,2,3
 1557 1027 1557 1027 1557 727 c 256,4,5
 1557 427 1557 427 1344 213 c 0,6,7
 1133 -2 1133 -2 827 -2 c 0,8,9
 527 -2 527 -2 313 211 c 0,10,11
 98 426 98 426 98 727 c 0,12,13
 98 1025 98 1025 312 1241 c 0,14,15
 525 1456 525 1456 827 1456 c 0,0,1
827 92 m 0,16,17
 1090 92 1090 92 1275 278 c 0,18,19
 1461 462 1461 462 1461 727 c 0,20,21
 1461 990 1461 990 1275 1175 c 0,22,23
 1090 1361 1090 1361 827 1361 c 0,24,25
 565 1361 565 1361 379 1175 c 256,26,27
 193 989 193 989 193 727 c 0,28,29
 193 464 193 464 379 278 c 256,30,31
 565 92 565 92 827 92 c 0,16,17
1209 602 m 1,32,33
 1180 470 1180 470 1101 407 c 0,34,35
 1023 344 1023 344 961 323 c 256,36,37
 899 302 899 302 827 302 c 0,38,39
 640 302 640 302 523 425 c 0,40,41
 407 548 407 548 407 744 c 0,42,43
 407 939 407 939 522 1062 c 0,44,45
 636 1184 636 1184 827 1184 c 0,46,47
 971 1184 971 1184 1066 1119 c 256,48,49
 1161 1054 1161 1054 1202 927 c 1,50,-1
 1040 927 l 1,51,52
 1012 987 1012 987 956 1019 c 0,53,54
 905 1050 905 1050 827 1050 c 0,55,56
 702 1050 702 1050 632 959 c 256,57,58
 562 868 562 868 562 744 c 256,59,60
 562 620 562 620 631 529 c 0,61,62
 698 438 698 438 827 438 c 0,63,64
 908 438 908 438 966 481 c 0,65,66
 1023 522 1023 522 1051 602 c 1,67,-1
 1209 602 l 1,32,33
EndSplineSet
EndChar

StartChar: ordfeminine
Encoding: 170 170 144
Width: 681
GlyphClass: 1
Flags: W
LayerCount: 2
Fore
SplineSet
465 838 m 1,0,-1
 465 896 l 1,1,-1
 460 896 l 1,2,3
 422 829 422 829 302 829 c 0,4,5
 160 829 160 829 100 887 c 0,6,7
 38 942 38 942 38 1014 c 0,8,9
 38 1101 38 1101 94 1159 c 1,10,11
 144 1217 144 1217 242 1217 c 2,12,-1
 465 1217 l 1,13,-1
 465 1254 l 2,14,15
 463 1311 463 1311 421 1324 c 0,16,17
 382 1334 382 1334 330 1334 c 0,18,19
 261 1334 261 1334 229 1326 c 1,20,21
 199 1314 199 1314 183 1287 c 1,22,-1
 79 1377 l 1,23,24
 122 1432 122 1432 179 1452 c 0,25,26
 232 1468 232 1468 324 1468 c 0,27,28
 613 1475 613 1475 620 1264 c 1,29,-1
 620 838 l 1,30,-1
 465 838 l 1,0,-1
465 1056 m 2,31,-1
 465 1094 l 1,32,-1
 306 1094 l 2,33,34
 194 1095 194 1095 193 1025 c 0,35,36
 193 1010 193 1010 206 997 c 0,37,38
 216 984 216 984 234 977 c 0,39,40
 272 963 272 963 316 963 c 0,41,42
 410 963 410 963 441 983 c 1,43,44
 466 1004 466 1004 465 1056 c 2,31,-1
EndSplineSet
EndChar

StartChar: exclamdown
Encoding: 161 161 145
Width: 368
GlyphClass: 1
Flags: W
LayerCount: 2
Fore
SplineSet
53 -426 m 1,0,-1
 131 674 l 1,1,-1
 232 674 l 1,2,-1
 308 -426 l 1,3,-1
 53 -426 l 1,0,-1
80 827 m 1,4,-1
 80 1035 l 1,5,-1
 282 1035 l 1,6,-1
 282 827 l 1,7,-1
 80 827 l 1,4,-1
EndSplineSet
EndChar

StartChar: cent
Encoding: 162 162 146
Width: 935
GlyphClass: 1
Flags: W
LayerCount: 2
Fore
SplineSet
490 191 m 1,0,-1
 490 839 l 1,1,2
 276 816 276 816 275 514 c 0,3,4
 276 215 276 215 490 191 c 1,0,-1
490 -204 m 1,5,-1
 490 -17 l 1,6,7
 321 -4 321 -4 202 122 c 1,8,9
 74 249 74 249 73 514 c 0,10,11
 74 782 74 782 202 910 c 1,12,13
 322 1037 322 1037 490 1048 c 1,14,-1
 490 1235 l 1,15,-1
 568 1235 l 1,16,-1
 568 1048 l 1,17,18
 780 1016 780 1016 891 867 c 1,19,-1
 743 730 l 1,20,21
 681 812 681 812 568 839 c 1,22,-1
 568 192 l 1,23,24
 681 217 681 217 743 300 c 1,25,-1
 891 163 l 1,26,27
 780 14 780 14 568 -17 c 1,28,-1
 568 -204 l 1,29,-1
 490 -204 l 1,5,-1
EndSplineSet
EndChar

StartChar: sterling
Encoding: 163 163 147
Width: 1022
GlyphClass: 1
Flags: W
LayerCount: 2
Fore
SplineSet
78 611 m 1,0,-1
 78 745 l 1,1,-1
 190 745 l 1,2,3
 116 909 116 909 118 1054 c 0,4,5
 119 1249 119 1249 228 1360 c 0,6,7
 331 1466 331 1466 497 1468 c 0,8,9
 702 1466 702 1466 802 1352 c 0,10,11
 900 1235 900 1235 900 1048 c 1,12,-1
 698 1048 l 1,13,14
 685 1272 685 1272 512 1272 c 1,15,16
 323 1267 323 1267 321 1050 c 0,17,18
 322 882 322 882 394 745 c 1,19,-1
 730 745 l 1,20,-1
 730 611 l 1,21,-1
 444 611 l 1,22,23
 479 513 479 513 481 430 c 0,24,25
 479 318 479 318 419 208 c 1,26,27
 479 202 479 202 532 194 c 1,28,29
 596 179 596 179 648 179 c 0,30,31
 692 179 692 179 748 196 c 0,32,33
 796 209 796 209 845 247 c 1,34,-1
 974 85 l 1,35,36
 907 29 907 29 826 4 c 1,37,38
 742 -17 742 -17 680 -17 c 0,39,40
 606 -13 606 -13 488 2 c 0,41,42
 361 21 361 21 283 23 c 0,43,44
 200 23 200 23 104 -17 c 1,45,-1
 104 179 l 1,46,47
 175 218 175 218 255 220 c 1,48,49
 287 309 287 309 291 395 c 0,50,51
 291 437 291 437 277 497 c 0,52,53
 268 524 268 524 259.5 552.5 c 128,-1,54
 251 581 251 581 242 611 c 1,55,-1
 78 611 l 1,0,-1
EndSplineSet
EndChar

StartChar: currency
Encoding: 164 164 148
Width: 997
GlyphClass: 1
Flags: W
LayerCount: 2
Fore
SplineSet
56 370 m 1,0,-1
 153 472 l 1,1,2
 79 563 79 563 78 725 c 0,3,4
 79 884 79 884 153 980 c 1,5,-1
 56 1080 l 1,6,-1
 161 1186 l 1,7,-1
 259 1085 l 1,8,9
 347 1160 347 1160 505 1165 c 1,10,11
 654 1163 654 1163 749 1089 c 1,12,-1
 847 1186 l 1,13,-1
 950 1079 l 1,14,-1
 852 979 l 1,15,16
 929 882 929 882 932 725 c 1,17,18
 929 564 929 564 855 471 c 1,19,-1
 950 370 l 1,20,-1
 847 263 l 1,21,-1
 749 364 l 1,22,23
 655 285 655 285 505 284 c 0,24,25
 431 284 431 284 368 308 c 0,26,27
 300 332 300 332 259 364 c 1,28,-1
 161 263 l 1,29,-1
 56 370 l 1,0,-1
232 725 m 0,30,31
 232 590 232 590 308 511 c 0,32,33
 383 430 383 430 506 430 c 0,34,35
 630 430 630 430 704 511 c 0,36,37
 778 589 778 589 778 725 c 0,38,39
 770 1012 770 1012 506 1019 c 1,40,41
 238 1013 238 1013 232 725 c 0,30,31
EndSplineSet
EndChar

StartChar: yen
Encoding: 165 165 149
Width: 1123
GlyphClass: 1
Flags: W
LayerCount: 2
Fore
SplineSet
469 -5 m 1,0,-1
 469 323 l 1,1,-1
 171 323 l 1,2,-1
 171 458 l 1,3,-1
 469 458 l 1,4,-1
 469 596 l 1,5,-1
 442 651 l 1,6,-1
 171 651 l 1,7,-1
 171 786 l 1,8,-1
 378 786 l 1,9,-1
 59 1456 l 1,10,-1
 274 1456 l 1,11,-1
 564 807 l 1,12,-1
 855 1456 l 1,13,-1
 1070 1456 l 1,14,-1
 751 786 l 1,15,-1
 959 786 l 1,16,-1
 959 651 l 1,17,-1
 687 651 l 1,18,-1
 660 596 l 1,19,-1
 660 458 l 1,20,-1
 959 458 l 1,21,-1
 959 323 l 1,22,-1
 660 323 l 1,23,-1
 660 -5 l 1,24,-1
 469 -5 l 1,0,-1
EndSplineSet
EndChar

StartChar: brokenbar
Encoding: 166 166 150
Width: 334
GlyphClass: 1
Flags: W
LayerCount: 2
Fore
SplineSet
87 -17 m 1,0,-1
 87 538 l 1,1,-1
 242 538 l 1,2,-1
 242 -17 l 1,3,-1
 87 -17 l 1,0,-1
87 913 m 1,4,-1
 87 1468 l 1,5,-1
 242 1468 l 1,6,-1
 242 913 l 1,7,-1
 87 913 l 1,4,-1
EndSplineSet
EndChar

StartChar: braceleft
Encoding: 123 123 151
Width: 601
GlyphClass: 1
Flags: W
LayerCount: 2
Fore
SplineSet
54 554 m 1,0,-1
 54 689 l 1,1,2
 94 689 94 689 123 710 c 1,3,4
 154 727 154 727 171 763 c 0,5,6
 210 835 210 835 210 936 c 2,7,-1
 210 1229 l 2,8,9
 211 1337 211 1337 270 1397 c 0,10,11
 323 1456 323 1456 404 1456 c 2,12,-1
 573 1456 l 1,13,-1
 573 1322 l 1,14,-1
 475 1322 l 2,15,16
 428 1320 428 1320 407 1271 c 0,17,18
 388 1221 388 1221 388 1151 c 2,19,-1
 388 886 l 2,20,21
 388 820 388 820 369 773 c 0,22,23
 351 726 351 726 322 693 c 0,24,25
 261 631 261 631 227 624 c 1,26,-1
 227 620 l 1,27,28
 242 617 242 617 271 603 c 0,29,30
 298 586 298 586 322 555 c 0,31,32
 351 524 351 524 369 475 c 0,33,34
 388 422 388 422 388 354 c 2,35,-1
 388 91 l 2,36,37
 388 23 388 23 407 -23 c 0,38,39
 427 -75 427 -75 475 -79 c 1,40,-1
 573 -79 l 1,41,-1
 573 -213 l 1,42,-1
 404 -213 l 2,43,44
 324 -211 324 -211 270 -151 c 0,45,46
 211 -90 211 -90 210 13 c 2,47,-1
 210 303 l 2,48,49
 210 410 210 410 171 479 c 0,50,51
 132 551 132 551 54 554 c 1,0,-1
EndSplineSet
EndChar

StartChar: bar
Encoding: 124 124 152
Width: 334
GlyphClass: 1
Flags: W
LayerCount: 2
Fore
SplineSet
87 -17 m 1,0,-1
 87 1468 l 1,1,-1
 242 1468 l 1,2,-1
 242 -17 l 1,3,-1
 87 -17 l 1,0,-1
EndSplineSet
EndChar

StartChar: braceright
Encoding: 125 125 153
Width: 334
GlyphClass: 1
Flags: W
LayerCount: 2
Fore
SplineSet
27 -213 m 1,0,-1
 27 -79 l 1,1,-1
 124 -79 l 2,2,3
 171 -76 171 -76 191 -23 c 0,4,5
 212 25 212 25 212 91 c 2,6,-1
 212 356 l 2,7,8
 212 423 212 423 233 473 c 0,9,10
 251 523 251 523 279 554 c 0,11,12
 336 614 336 614 366 620 c 1,13,-1
 366 624 l 1,14,15
 346 634 346 634 330 644 c 0,16,17
 306 657 306 657 279 689 c 0,18,19
 250 720 250 720 233 769 c 0,20,21
 212 818 212 818 212 888 c 2,22,-1
 212 1151 l 2,23,24
 212 1220 212 1220 191 1271 c 0,25,26
 170 1320 170 1320 123 1322 c 2,27,-1
 27 1322 l 1,28,-1
 27 1456 l 1,29,-1
 195 1456 l 2,30,31
 277 1456 277 1456 335 1397 c 1,32,33
 388 1335 388 1335 390 1229 c 2,34,-1
 390 939 l 2,35,36
 390 835 390 835 432 765 c 0,37,38
 470 695 470 695 545 689 c 1,39,-1
 550 554 l 1,40,41
 473 550 473 550 433 481 c 0,42,43
 390 412 390 412 390 307 c 2,44,-1
 390 13 l 2,45,46
 388 -89 388 -89 335 -151 c 0,47,48
 279 -211 279 -211 196 -213 c 2,49,-1
 27 -213 l 1,0,-1
EndSplineSet
EndChar

StartChar: asciitilde
Encoding: 126 126 154
Width: 1027
GlyphClass: 1
Flags: W
LayerCount: 2
Fore
SplineSet
133 358 m 1,0,-1
 61 485 l 1,1,2
 92 552 92 552 153 607 c 0,3,4
 213 661 213 661 309 663 c 0,5,6
 363 663 363 663 419 644 c 0,7,8
 474 623 474 623 531 595 c 0,9,10
 577 572 577 572 639 546 c 0,11,12
 693 521 693 521 733 521 c 0,13,14
 792 522 792 522 835 570 c 0,15,16
 875 612 875 612 908 669 c 1,17,-1
 979 541 l 1,18,19
 947 472 947 472 890 422 c 1,20,21
 833 365 833 365 731 364 c 0,22,23
 680 364 680 364 626 385 c 0,24,25
 561 411 561 411 510 430 c 1,26,27
 461 455 461 455 403 480 c 0,28,29
 350 501 350 501 308 505 c 1,30,31
 250 502 250 502 208 460 c 1,32,33
 160 403 160 403 133 358 c 1,0,-1
EndSplineSet
EndChar

StartChar: threequarters
Encoding: 190 190 155
Width: 1529
GlyphClass: 1
Flags: W
LayerCount: 2
Fore
SplineSet
336 -40 m 1,0,-1
 1198 1491 l 1,1,-1
 1329 1491 l 1,2,-1
 471 -40 l 1,3,-1
 336 -40 l 1,0,-1
836 122 m 1,4,-1
 835 268 l 1,5,-1
 1143 867 l 1,6,-1
 1311 867 l 1,7,-1
 1008 269 l 1,8,-1
 1225 269 l 1,9,-1
 1225 496 l 1,10,-1
 1392 496 l 1,11,-1
 1392 269 l 1,12,-1
 1457 269 l 1,13,-1
 1457 122 l 1,14,-1
 1392 122 l 1,15,-1
 1392 -5 l 1,16,-1
 1225 -5 l 1,17,-1
 1225 122 l 1,18,-1
 836 122 l 1,4,-1
312 969 m 1,19,-1
 312 1103 l 1,20,-1
 376 1103 l 2,21,22
 441 1103 441 1103 482 1137 c 0,23,24
 520 1164 520 1164 520 1216 c 0,25,26
 520 1262 520 1262 489 1293 c 1,27,28
 453 1322 453 1322 403 1322 c 0,29,30
 358 1322 358 1322 319 1297 c 0,31,32
 282 1269 282 1269 268 1214 c 1,33,-1
 101 1214 l 1,34,35
 113 1328 113 1328 188 1397 c 256,36,37
 263 1466 263 1466 384 1468 c 0,38,39
 531 1466 531 1466 609 1393 c 0,40,41
 686 1317 686 1317 686 1219 c 0,42,43
 686 1170 686 1170 666 1121 c 1,44,45
 641 1073 641 1073 582 1037 c 1,46,47
 644 1002 644 1002 672 951 c 0,48,49
 697 902 697 902 697 845 c 0,50,51
 695 724 695 724 614 649 c 0,52,53
 532 576 532 576 389 576 c 0,54,55
 146 573 146 573 97 821 c 1,56,-1
 264 821 l 1,57,58
 294 724 294 724 400 722 c 0,59,60
 458 722 458 722 495 756 c 0,61,62
 528 786 528 786 531 841 c 1,63,64
 528 899 528 899 489 936 c 0,65,66
 450 969 450 969 388 969 c 2,67,-1
 312 969 l 1,19,-1
EndSplineSet
EndChar

StartChar: bullet
Encoding: 8226 8226 156
Width: 813
GlyphClass: 1
Flags: W
LayerCount: 2
Fore
SplineSet
67 725 m 0,0,1
 68 880 68 880 173 983 c 1,2,3
 272 1088 272 1088 421 1090 c 0,4,5
 572 1088 572 1088 672 983 c 0,6,7
 773 879 773 879 775 725 c 0,8,9
 773 572 773 572 672 469 c 0,10,11
 573 363 573 363 421 360 c 1,12,13
 271 363 271 363 173 469 c 1,14,15
 68 571 68 571 67 725 c 0,0,1
EndSplineSet
EndChar

StartChar: trademark
Encoding: 8482 8482 157
Width: 1914
GlyphClass: 1
Flags: W
LayerCount: 2
Fore
SplineSet
331 611 m 1,0,-1
 331 1310 l 1,1,-1
 85 1310 l 1,2,-1
 85 1456 l 1,3,-1
 733 1456 l 1,4,-1
 733 1310 l 1,5,-1
 486 1310 l 1,6,-1
 486 611 l 1,7,-1
 331 611 l 1,0,-1
1669 611 m 1,8,-1
 1669 1297 l 1,9,-1
 1665 1297 l 1,10,-1
 1402 611 l 1,11,-1
 1300 611 l 1,12,-1
 1039 1297 l 1,13,-1
 1035 1297 l 1,14,-1
 1035 611 l 1,15,-1
 881 611 l 1,16,-1
 881 1456 l 1,17,-1
 1123 1456 l 1,18,-1
 1351 832 l 1,19,-1
 1581 1456 l 1,20,-1
 1823 1456 l 1,21,-1
 1823 611 l 1,22,-1
 1669 611 l 1,8,-1
EndSplineSet
EndChar

StartChar: tilde
Encoding: 732 732 158
Width: 800
GlyphClass: 1
Flags: W
LayerCount: 2
Fore
SplineSet
173 1189 m 1,0,-1
 54 1189 l 1,1,2
 70 1298 70 1298 130 1364 c 0,3,4
 187 1427 187 1427 279 1427 c 0,5,6
 319 1427 319 1427 352 1417 c 0,7,8
 395 1404 395 1404 422 1391 c 0,9,10
 456 1375 456 1375 490 1364 c 1,11,12
 519 1350 519 1350 549 1350 c 0,13,14
 580 1348 580 1348 607 1368 c 0,15,16
 632 1386 632 1386 643 1440 c 1,17,-1
 762 1440 l 1,18,19
 748 1344 748 1344 697 1276 c 0,20,21
 644 1203 644 1203 544 1202 c 0,22,23
 505 1202 505 1202 470 1216 c 1,24,25
 431 1226 431 1226 394 1240 c 0,26,27
 317 1276 317 1276 257 1278 c 0,28,29
 237 1278 237 1278 205 1262 c 1,30,31
 173 1240 173 1240 173 1189 c 1,0,-1
EndSplineSet
EndChar

StartChar: a
Encoding: 97 97 159
Width: 984
GlyphClass: 1
Flags: W
LayerCount: 2
Fore
SplineSet
687 -5 m 1,0,-1
 687 87 l 1,1,-1
 683 87 l 1,2,3
 654 33 654 33 596 9 c 0,4,5
 534 -17 534 -17 434 -17 c 0,6,7
 262 -13 262 -13 174 75 c 1,8,9
 78 163 78 163 78 300 c 0,10,11
 78 430 78 430 161 518 c 256,12,13
 244 606 244 606 406 608 c 2,14,-1
 687 608 l 1,15,-1
 687 718 l 2,16,17
 688 856 688 856 480 852 c 0,18,19
 408 852 408 852 360 836 c 1,20,21
 313 815 313 815 289 771 c 1,22,-1
 129 897 l 1,23,24
 245 1052 245 1052 470 1048 c 1,25,26
 659 1050 659 1050 774 974 c 0,27,28
 887 895 887 895 889 706 c 2,29,-1
 889 -5 l 1,30,-1
 687 -5 l 1,0,-1
687 360 m 2,31,-1
 687 436 l 1,32,-1
 444 436 l 1,33,34
 266 431 266 431 268 310 c 0,35,36
 268 258 268 258 314 220 c 0,37,38
 358 179 358 179 459 179 c 0,39,40
 587 177 587 177 639 210 c 0,41,42
 687 243 687 243 687 360 c 2,31,-1
EndSplineSet
EndChar

StartChar: six
Encoding: 54 54 160
Width: 995
GlyphClass: 1
Flags: W
LayerCount: 2
Fore
SplineSet
137 670 m 2,0,-1
 529 1454 l 1,1,-1
 762 1454 l 1,2,-1
 455 837 l 1,3,-1
 459 837 l 1,4,5
 505 856 505 856 570 856 c 0,6,7
 706 856 706 856 813 759 c 0,8,9
 919 661 919 661 919 449 c 0,10,11
 919 197 919 197 785 89 c 0,12,13
 651 -18 651 -18 488 -18 c 0,14,15
 333 -18 333 -18 207 100 c 256,16,17
 81 218 81 218 81 426 c 0,18,19
 81 559 81 559 137 670 c 2,0,-1
500 670 m 0,20,21
 411 670 411 670 351 612 c 0,22,23
 290 551 290 551 290 430 c 0,24,25
 290 190 290 190 500 190 c 0,26,27
 572 190 572 190 641 245 c 0,28,29
 709 299 709 299 709 430 c 0,30,31
 709 552 709 552 648 612 c 0,32,33
 587 670 587 670 500 670 c 0,20,21
EndSplineSet
EndChar

StartChar: nine
Encoding: 57 57 161
Width: 995
GlyphClass: 1
Flags: W
LayerCount: 2
Fore
SplineSet
863 778 m 2,0,-1
 471 -6 l 1,1,-1
 237 -6 l 1,2,-1
 545 611 l 1,3,-1
 541 611 l 1,4,5
 491 592 491 592 430 592 c 0,6,7
 290 592 290 592 186 689 c 0,8,9
 81 785 81 785 81 999 c 0,10,11
 81 1250 81 1250 214 1358 c 0,12,13
 348 1467 348 1467 512 1467 c 0,14,15
 664 1467 664 1467 792 1347 c 0,16,17
 919 1227 919 1227 919 1021 c 0,18,19
 919 888 919 888 863 778 c 2,0,-1
500 778 m 0,20,21
 587 778 587 778 648 836 c 0,22,23
 709 892 709 892 709 1017 c 0,24,25
 709 1258 709 1258 500 1258 c 0,26,27
 427 1258 427 1258 359 1203 c 0,28,29
 290 1147 290 1147 290 1017 c 0,30,31
 290 893 290 893 351 836 c 0,32,33
 411 778 411 778 500 778 c 0,20,21
EndSplineSet
EndChar

StartChar: Abreve
Encoding: 258 258 162
Width: 1276
Flags: W
LayerCount: 2
Fore
SplineSet
372 1620.5 m 0,0,1
 423 1541 423 1541 535 1506 c 1,2,3
 628 1480 628 1480 712 1505 c 0,4,5
 879 1554 879 1554 892 1628 c 0,6,-1
 819 1626 l 0,7,-1
 712 1558 l 0,8,9
 712 1558 712 1558 525 1559 c 0,10,-1
 444 1622 l 1,11,-1
 372 1620.5 l 0,0,1
2 0 m 1,12,-1
 534 1458 l 1,13,-1
 716 1458 l 1,14,-1
 1248 0 l 1,15,-1
 1016 0 l 1,16,-1
 904 329 l 1,17,-1
 351 329 l 1,18,-1
 235 0 l 1,19,-1
 2 0 l 1,12,-1
416 524 m 1,20,-1
 838 524 l 1,21,22
 792 659 792 659 765.5 735.5 c 128,-1,23
 739 812 739 812 719.5 871 c 128,-1,24
 700 930 700 930 680 991 c 128,-1,25
 660 1052 660 1052 627 1156 c 1,26,27
 592 1048 592 1048 571 983.5 c 128,-1,28
 550 919 550 919 530.5 859 c 128,-1,29
 511 799 511 799 485.5 725 c 128,-1,30
 460 651 460 651 416 524 c 1,20,-1
EndSplineSet
EndChar

StartChar: abreve
Encoding: 259 259 163
Width: 984
InSpiro: 1
Flags: W
LayerCount: 2
Fore
SplineSet
238 1328 m 1,0,-1
 298 1328 l 1,1,-1
 331 1238 l 1,2,-1
 490 1199 l 1,3,-1
 643 1238 l 1,4,-1
 703 1346 l 1,5,-1
 766 1340 l 1,6,-1
 724 1256 l 1,7,-1
 670 1199 l 1,8,-1
 607 1142 l 1,9,-1
 460 1130 l 1,10,-1
 385 1132 l 1,11,-1
 346 1142 l 1,12,-1
 261.5 1225.5 l 1,13,-1
 238 1328 l 1,0,-1
  Spiro
    238 1328 ]
    298 1328 v
    331 1238 v
    490 1199 o
    643 1238 o
    703 1346 o
    766 1340 v
    724 1256 o
    670 1199 o
    607 1142 o
    460 1130 o
    385 1132 o
    346 1142 o
    261.5 1225.5 o
    0 0 z
  EndSpiro
687 -5 m 1,14,-1
 687 87 l 1,15,-1
 683 87 l 1,16,17
 654 33 654 33 596 9 c 0,18,19
 534 -17 534 -17 434 -17 c 0,20,21
 262 -13 262 -13 174 75 c 1,22,23
 78 163 78 163 78 300 c 0,24,25
 78 430 78 430 161 518 c 256,26,27
 244 606 244 606 406 608 c 2,28,-1
 687 608 l 1,29,-1
 687 718 l 2,30,31
 688 856 688 856 480 852 c 0,32,33
 408 852 408 852 360 836 c 1,34,35
 313 815 313 815 289 771 c 1,36,-1
 129 897 l 1,37,38
 245 1052 245 1052 470 1048 c 1,39,40
 659 1050 659 1050 774 974 c 0,41,42
 887 895 887 895 889 706 c 2,43,-1
 889 -5 l 1,44,-1
 687 -5 l 1,14,-1
  Spiro
    687 -5 v
    687 87 v
    683 87 v
    646.75 40.5 o
    596 9 o
    524.5 -10.5 o
    434 -17 o
    283 8 o
    174 75 v
    102 175.25 o
    78 300 o
    98.75 419.5 o
    161 518 o
    263.75 584.5 o
    406 608 [
    687 608 v
    687 718 ]
    635.75 820.5 o
    480 852 o
    414 848 o
    360 836 v
    318.75 809.25 o
    289 771 v
    129 897 v
    272.25 1012.25 o
    470 1048 v
    640.5 1030.5 o
    774 974 o
    859.25 867.5 o
    889 706 [
    889 -5 v
    0 0 z
  EndSpiro
687 360 m 2,45,-1
 687 436 l 1,46,-1
 444 436 l 1,47,48
 266 431 266 431 268 310 c 0,49,50
 268 258 268 258 314 220 c 0,51,52
 358 179 358 179 459 179 c 0,53,54
 587 177 587 177 639 210 c 0,55,56
 687 243 687 243 687 360 c 2,45,-1
  Spiro
    687 360 [
    687 436 v
    444 436 v
    311 402 o
    268 310 o
    279.5 261.5 o
    314 220 o
    372.25 189.25 o
    459 179 o
    568 185.75 o
    639 210 o
    675 264 o
    0 0 z
  EndSpiro
EndSplineSet
EndChar

StartChar: acircumflex
Encoding: 226 226 164
Width: 984
Flags: W
LayerCount: 2
Fore
SplineSet
235 1175 m 29,0,-1
 430 1370 l 5,1,-1
 577 1373 l 5,2,-1
 748 1181 l 5,3,-1
 577 1181 l 5,4,-1
 499 1268 l 5,5,-1
 424 1181 l 29,6,-1
 235 1175 l 29,0,-1
687 -5 m 1,7,-1
 687 87 l 1,8,-1
 683 87 l 1,9,10
 653.999023438 33 653.999023438 33 595.999023438 9 c 0,11,12
 534 -16.9990234375 534 -16.9990234375 434 -17 c 0,13,14
 262 -13 262 -13 174 75 c 1,15,16
 78 163 78 163 78 300 c 0,17,18
 78 430 78 430 161 518 c 256,19,20
 244 606 244 606 406 608 c 2,21,-1
 687 608 l 1,22,-1
 687 718 l 2,23,24
 688 856 688 856 480 852 c 0,25,26
 408 852 408 852 360 836 c 1,27,28
 313 815 313 815 289 771 c 1,29,-1
 129 897.000976562 l 1,30,31
 245 1052 245 1052 470 1048 c 1,32,33
 659 1050 659 1050 774 974 c 0,34,35
 887 895 887 895 889 706.000976562 c 2,36,-1
 889 -5 l 1,37,-1
 687 -5 l 1,7,-1
687 360 m 2,38,-1
 687 436 l 1,39,-1
 444 436 l 1,40,41
 266 431 266 431 268 310 c 0,42,43
 268 258 268 258 314 220 c 0,44,45
 358 179 358 179 459 179 c 0,46,47
 587 177 587 177 639 210 c 0,48,49
 687 243 687 243 687 360 c 2,38,-1
EndSplineSet
EndChar

StartChar: Acircumflex
Encoding: 194 194 165
Width: 1260
Flags: W
LayerCount: 2
Fore
SplineSet
2 0 m 1,0,-1
 534 1458 l 1,1,-1
 716 1458 l 1,2,-1
 1248 0 l 1,3,-1
 1016 0 l 1,4,-1
 904 329 l 1,5,-1
 351 329 l 1,6,-1
 235 0 l 1,7,-1
 2 0 l 1,0,-1
416 524 m 1,8,-1
 838 524 l 1,9,10
 792 659 792 659 765.5 735.5 c 128,-1,11
 739 812 739 812 719.5 871 c 128,-1,12
 700 930 700 930 680 991 c 128,-1,13
 660 1052 660 1052 627 1156 c 1,14,15
 592 1048 592 1048 571 983.5 c 128,-1,16
 550 919 550 919 530.5 859 c 128,-1,17
 511 799 511 799 485.5 725 c 128,-1,18
 460 651 460 651 416 524 c 1,8,-1
358 1500 m 1,19,-1
 566 1698 l 1,20,-1
 700 1698 l 1,21,-1
 871 1506 l 1,22,-1
 700 1506 l 1,23,-1
 622 1593 l 1,24,-1
 547 1506 l 25,25,-1
 358 1500 l 1,19,-1
EndSplineSet
EndChar
